<svg width="22" height="22" viewBox="0 0 22 22" fill="none" xmlns="http://www.w3.org/2000/svg">
<path opacity="0.5" d="M18.6112 14.5435V9.22593C18.6112 6.71923 18.6112 5.46589 17.8324 4.68716C17.1514 4.00618 16.1075 3.92071 14.1799 3.90997H7.08994C5.16232 3.92071 4.1184 4.00618 3.43742 4.68716C2.65869 5.46589 2.65869 6.71923 2.65869 9.22593V14.5435C2.65869 17.0501 2.65869 18.3035 3.43742 19.0822C4.21615 19.861 5.4695 19.861 7.97619 19.861H13.2937C15.8004 19.861 17.0537 19.861 17.8324 19.0822C18.6112 18.3035 18.6112 17.0501 18.6112 14.5435Z" fill="#C0C0C0"/>
<path d="M7.08984 3.46689C7.08984 2.73269 7.68502 2.13751 8.41922 2.13751H12.8505C13.5846 2.13751 14.1798 2.73269 14.1798 3.46689V4.35314C14.1798 5.08733 13.5846 5.68251 12.8505 5.68251H8.41922C7.68502 5.68251 7.08984 5.08733 7.08984 4.35314V3.46689Z" fill="#C0C0C0"/>
<path fill-rule="evenodd" clip-rule="evenodd" d="M5.53906 9.67061C5.53906 9.30352 5.83666 9.00592 6.20375 9.00592H15.0662C15.4333 9.00592 15.7309 9.30352 15.7309 9.67061C15.7309 10.0377 15.4333 10.3353 15.0662 10.3353H6.20375C5.83666 10.3353 5.53906 10.0377 5.53906 9.67061ZM6.42531 12.7725C6.42531 12.4054 6.72291 12.1078 7.09 12.1078H14.18C14.5471 12.1078 14.8447 12.4054 14.8447 12.7725C14.8447 13.1396 14.5471 13.4372 14.18 13.4372H7.09C6.72291 13.4372 6.42531 13.1396 6.42531 12.7725ZM7.31156 15.8744C7.31156 15.5073 7.60916 15.2097 7.97625 15.2097H13.2937C13.6608 15.2097 13.9584 15.5073 13.9584 15.8744C13.9584 16.2414 13.6608 16.539 13.2937 16.539H7.97625C7.60916 16.539 7.31156 16.2414 7.31156 15.8744Z" fill="#C0C0C0"/>
</svg>
