<svg width="22" height="22" viewBox="0 0 22 22" fill="none" xmlns="http://www.w3.org/2000/svg">
<path opacity="0.5" d="M9.65831 19.8638H11.6192C14.6741 19.8638 16.2016 19.8638 17.2432 18.967C18.2847 18.0702 18.5007 16.5689 18.9328 13.5663L19.1798 11.8491C19.5162 9.51159 19.6844 8.34289 19.2053 7.34363C18.7263 6.34437 17.7066 5.73696 15.6673 4.52216L14.4397 3.79093C12.5879 2.68776 11.6619 2.13617 10.6387 2.13617C9.61559 2.13617 8.68962 2.68776 6.8377 3.79093L5.6102 4.52215C3.57088 5.73696 2.55122 6.34437 2.07217 7.34363C1.59311 8.34289 1.76128 9.51159 2.09761 11.8491L2.3447 13.5663C2.77673 16.5689 2.99276 18.0702 4.03432 18.967C5.07587 19.8638 6.60336 19.8638 9.65831 19.8638Z" fill="white"/>
<path d="M8.37516 14.011C8.08019 13.7925 7.66385 13.8543 7.44521 14.1492C7.22658 14.4442 7.28846 14.8605 7.58341 15.0792C8.44535 15.7181 9.49948 16.0963 10.6384 16.0963C11.7774 16.0963 12.8315 15.7181 13.6935 15.0792C13.9884 14.8605 14.0503 14.4442 13.8317 14.1492C13.613 13.8543 13.1967 13.7925 12.9017 14.011C12.2561 14.4896 11.4768 14.7668 10.6384 14.7668C9.79996 14.7668 9.02074 14.4896 8.37516 14.011Z" fill="white"/>
</svg>
