<svg width="14" height="19" viewBox="0 0 14 19" fill="none" xmlns="http://www.w3.org/2000/svg">
<path d="M13.6666 18.3333H12V16.6667C12 16.0036 11.7366 15.3678 11.2677 14.8989C10.7989 14.4301 10.163 14.1667 9.49996 14.1667H4.49996C3.83692 14.1667 3.20104 14.4301 2.7322 14.8989C2.26336 15.3678 1.99996 16.0036 1.99996 16.6667V18.3333H0.333298V16.6667C0.333298 15.5616 0.772285 14.5018 1.55369 13.7204C2.33509 12.939 3.3949 12.5 4.49996 12.5H9.49996C10.605 12.5 11.6648 12.939 12.4462 13.7204C13.2276 14.5018 13.6666 15.5616 13.6666 16.6667V18.3333ZM6.99996 10.8333C6.34335 10.8333 5.69317 10.704 5.08655 10.4527C4.47992 10.2015 3.92872 9.83317 3.46443 9.36888C3.00014 8.90458 2.63184 8.35339 2.38057 7.74676C2.12929 7.14013 1.99996 6.48995 1.99996 5.83334C1.99996 5.17673 2.12929 4.52655 2.38057 3.91993C2.63184 3.3133 3.00014 2.7621 3.46443 2.29781C3.92872 1.83352 4.47992 1.46522 5.08655 1.21395C5.69317 0.962672 6.34335 0.833343 6.99996 0.833344C8.32605 0.833344 9.59782 1.36013 10.5355 2.29781C11.4732 3.23549 12 4.50726 12 5.83334C12 7.15943 11.4732 8.4312 10.5355 9.36888C9.59782 10.3066 8.32605 10.8333 6.99996 10.8333ZM6.99996 9.16668C7.88402 9.16668 8.73187 8.81549 9.35699 8.19037C9.98211 7.56524 10.3333 6.7174 10.3333 5.83334C10.3333 4.94929 9.98211 4.10144 9.35699 3.47632C8.73187 2.8512 7.88402 2.50001 6.99996 2.50001C6.11591 2.50001 5.26806 2.8512 4.64294 3.47632C4.01782 4.10144 3.66663 4.94929 3.66663 5.83334C3.66663 6.7174 4.01782 7.56524 4.64294 8.19037C5.26806 8.81549 6.11591 9.16668 6.99996 9.16668Z" fill="#858FA1"/>
</svg>
