<svg width="22" height="22" viewBox="0 0 22 22" fill="none" xmlns="http://www.w3.org/2000/svg">
<path fill-rule="evenodd" clip-rule="evenodd" d="M3.54457 8.34125C3.91166 8.34125 4.20926 8.63884 4.20926 9.00594V9.89218C4.20926 13.4408 7.08597 16.3175 10.6346 16.3175C14.1832 16.3175 17.0599 13.4408 17.0599 9.89218V9.00594C17.0599 8.63884 17.3575 8.34125 17.7246 8.34125C18.0917 8.34125 18.3893 8.63884 18.3893 9.00594V9.89218C18.3893 13.951 15.2709 17.2816 11.2993 17.6188V19.6409C11.2993 20.008 11.0017 20.3056 10.6346 20.3056C10.2675 20.3056 9.96988 20.008 9.96988 19.6409V17.6188C5.99824 17.2816 2.87988 13.951 2.87988 9.89218V9.00594C2.87988 8.63884 3.17748 8.34125 3.54457 8.34125Z" fill="#C0C0C0"/>
<path opacity="0.5" d="M8.64094 7.23345C8.64094 6.86636 8.34334 6.56876 7.97625 6.56876H6.9269H5.58202C5.90772 4.06841 8.04586 2.13751 10.635 2.13751C13.2241 2.13751 15.3623 4.06841 15.688 6.56876H14.3431H11.9644C11.5973 6.56876 11.2997 6.86636 11.2997 7.23345C11.2997 7.60054 11.5973 7.89814 11.9644 7.89814H14.4016H15.7309V9.22751H14.4016H11.9644C11.5973 9.22751 11.2997 9.52511 11.2997 9.8922C11.2997 10.2593 11.5973 10.5569 11.9644 10.5569H14.3431H15.688C15.3623 13.0573 13.2241 14.9881 10.635 14.9881C8.04586 14.9881 5.90772 13.0573 5.58202 10.5569H6.9269H7.97625C8.34334 10.5569 8.64094 10.2593 8.64094 9.8922C8.64094 9.52511 8.34334 9.22751 7.97625 9.22751H6.86844H5.53906V7.89814H6.86844H7.97625C8.34334 7.89814 8.64094 7.60054 8.64094 7.23345Z" fill="#C0C0C0"/>
<path d="M11.2993 9.89217C11.2993 10.2593 11.5969 10.5569 11.964 10.5569H14.3427H15.6876L15.7306 9.22748H14.4012H11.964C11.5969 9.22748 11.2993 9.52508 11.2993 9.89217Z" fill="#C0C0C0"/>
<path d="M11.2993 7.23341C11.2993 7.60051 11.5969 7.8981 11.964 7.8981H14.4012H15.7306L15.6876 6.56873H14.3427H11.964C11.5969 6.56873 11.2993 6.86632 11.2993 7.23341Z" fill="#C0C0C0"/>
<path d="M8.64094 7.23341C8.64094 6.86632 8.34334 6.56873 7.97625 6.56873H6.9269H5.58202L5.53906 7.8981H6.86844H7.97625C8.34334 7.8981 8.64094 7.60051 8.64094 7.23341Z" fill="#C0C0C0"/>
<path d="M8.64094 9.89217C8.64094 9.52508 8.34334 9.22748 7.97625 9.22748H6.86844H5.53906L5.58202 10.5569H6.9269H7.97625C8.34334 10.5569 8.64094 10.2593 8.64094 9.89217Z" fill="#C0C0C0"/>
</svg>
