<svg width="18" height="19" viewBox="0 0 18 19" fill="none" xmlns="http://www.w3.org/2000/svg">
<path d="M15.6667 13.1667H17.3333V14.8333H0.666672V13.1667H2.33334V7.33332C2.33334 5.56521 3.03572 3.86952 4.28596 2.61928C5.5362 1.36904 7.2319 0.666656 9.00001 0.666656C10.7681 0.666656 12.4638 1.36904 13.7141 2.61928C14.9643 3.86952 15.6667 5.56521 15.6667 7.33332V13.1667ZM14 13.1667V7.33332C14 6.00724 13.4732 4.73547 12.5355 3.79779C11.5979 2.86011 10.3261 2.33332 9.00001 2.33332C7.67392 2.33332 6.40215 2.86011 5.46447 3.79779C4.52679 4.73547 4.00001 6.00724 4.00001 7.33332V13.1667H14ZM6.50001 16.5H11.5V18.1667H6.50001V16.5Z" fill="#214636"/>
</svg>
