<svg width="16" height="18" viewBox="0 0 16 18" fill="none" xmlns="http://www.w3.org/2000/svg">
<path d="M15.6667 2.33332H3.99999C3.55796 2.33332 3.13404 2.50892 2.82148 2.82148C2.50892 3.13404 2.33332 3.55796 2.33332 3.99999C2.33332 4.44202 2.50892 4.86594 2.82148 5.1785C3.13404 5.49106 3.55796 5.66666 3.99999 5.66666H15.6667V16.5C15.6667 16.721 15.5789 16.933 15.4226 17.0892C15.2663 17.2455 15.0543 17.3333 14.8333 17.3333H3.99999C3.11593 17.3333 2.26809 16.9821 1.64297 16.357C1.01785 15.7319 0.666656 14.884 0.666656 14V3.99999C0.666656 3.11593 1.01785 2.26809 1.64297 1.64297C2.26809 1.01785 3.11593 0.666656 3.99999 0.666656H14.8333C15.0543 0.666656 15.2663 0.754454 15.4226 0.910734C15.5789 1.06701 15.6667 1.27898 15.6667 1.49999V2.33332ZM2.33332 14C2.33332 14.442 2.50892 14.8659 2.82148 15.1785C3.13404 15.4911 3.55796 15.6667 3.99999 15.6667H14V7.33332H3.99999C3.41484 7.33426 2.83985 7.18045 2.33332 6.88749V14ZM14.8333 4.83332H3.99999C3.77898 4.83332 3.56701 4.74553 3.41073 4.58925C3.25445 4.43297 3.16666 4.221 3.16666 3.99999C3.16666 3.77898 3.25445 3.56701 3.41073 3.41073C3.56701 3.25445 3.77898 3.16666 3.99999 3.16666H14.8333V4.83332Z" fill="#858FA1"/>
</svg>
