<svg width="22" height="22" viewBox="0 0 22 22" fill="none" xmlns="http://www.w3.org/2000/svg">
<path opacity="0.5" d="M2.65869 7.45501C2.65869 4.94832 2.65869 3.69497 3.43742 2.91624C4.21615 2.13751 5.4695 2.13751 7.97619 2.13751H13.2937C15.8004 2.13751 17.0537 2.13751 17.8324 2.91624C18.6112 3.69497 18.6112 4.94832 18.6112 7.45501V14.545C18.6112 17.0517 18.6112 18.305 17.8324 19.0838C17.0537 19.8625 15.8004 19.8625 13.2937 19.8625H7.97619C5.4695 19.8625 4.21615 19.8625 3.43742 19.0838C2.65869 18.305 2.65869 17.0517 2.65869 14.545V7.45501Z" fill="#C0C0C0"/>
<path fill-rule="evenodd" clip-rule="evenodd" d="M7.75467 2.14832V19.8723H6.42529V2.14832H7.75467Z" fill="#C0C0C0"/>
<path fill-rule="evenodd" clip-rule="evenodd" d="M1.10742 7.45497C1.10742 7.08788 1.40502 6.79028 1.77211 6.79028H3.54461C3.9117 6.79028 4.2093 7.08788 4.2093 7.45497C4.2093 7.82206 3.9117 8.11966 3.54461 8.11966H1.77211C1.40502 8.11966 1.10742 7.82206 1.10742 7.45497ZM1.10742 11C1.10742 10.6329 1.40502 10.3353 1.77211 10.3353H3.54461C3.9117 10.3353 4.2093 10.6329 4.2093 11C4.2093 11.3671 3.9117 11.6647 3.54461 11.6647H1.77211C1.40502 11.6647 1.10742 11.3671 1.10742 11ZM1.10742 14.545C1.10742 14.1779 1.40502 13.8803 1.77211 13.8803H3.54461C3.9117 13.8803 4.2093 14.1779 4.2093 14.545C4.2093 14.9121 3.9117 15.2097 3.54461 15.2097H1.77211C1.40502 15.2097 1.10742 14.9121 1.10742 14.545Z" fill="#C0C0C0"/>
<path d="M9.52686 6.12563C9.52686 5.75853 9.82446 5.46094 10.1915 5.46094H14.6228C14.9899 5.46094 15.2875 5.75853 15.2875 6.12563C15.2875 6.49272 14.9899 6.79031 14.6228 6.79031H10.1915C9.82446 6.79031 9.52686 6.49272 9.52686 6.12563Z" fill="#C0C0C0"/>
<path d="M9.52686 9.22749C9.52686 8.8604 9.82446 8.56281 10.1915 8.56281H14.6228C14.9899 8.56281 15.2875 8.8604 15.2875 9.22749C15.2875 9.59458 14.9899 9.89218 14.6228 9.89218H10.1915C9.82446 9.89218 9.52686 9.59458 9.52686 9.22749Z" fill="#C0C0C0"/>
</svg>
