<svg width="251" height="167" viewBox="0 0 251 167" fill="none" xmlns="http://www.w3.org/2000/svg">
<path d="M88.2833 82.3234H141.853V64.9H88.2833V82.3234Z" fill="#C7C7C7"/>
<path d="M141.853 64.9034V82.3267H225.357V80.6267H223.557V66.6034H225.357V64.9034H141.853Z" fill="#A6A6A6"/>
<path d="M144.047 80.5167L223.65 80.5167V66.71L144.047 66.71V80.5167Z" fill="white"/>
<path d="M144.043 80.5167C163.887 80.46 203.813 80.39 223.65 80.3667L223.5 80.5167V66.71C211.423 67.1867 176.393 66.65 163.963 66.8067L144.06 66.76C144.117 66.4633 144.06 80.58 144.06 80.5167H144.043ZM144.043 80.5167C144.043 80.47 143.997 66.7067 143.997 66.6633C143.997 66.62 163.933 66.62 163.947 66.6133L223.65 66.5433H223.817V66.71L223.8 80.5167V80.6667H223.65C203.81 80.6467 163.88 80.5767 144.043 80.5167Z" fill="#DBDBDB"/>
<path d="M195.08 77.4634C201.167 77.5434 207.253 77.5989 213.34 77.63L223.65 77.6567V77.2734L213.34 77.3C207.253 77.3223 201.167 77.3767 195.08 77.4634Z" fill="#DBDBDB"/>
<path d="M144.043 74.2V74.5533L157.333 74.59L176.597 74.54C182.683 74.5111 188.77 74.4567 194.857 74.3767C188.77 74.2967 182.683 74.2422 176.597 74.2133L157.333 74.1633L144.043 74.2Z" fill="#DBDBDB"/>
<path d="M144.043 69.0234V69.45L163.043 69.4C169.134 69.3712 175.221 69.3167 181.303 69.2367C175.217 69.1567 169.13 69.1023 163.043 69.0734L144.043 69.0234Z" fill="#DBDBDB"/>
<path d="M144.043 77.5V77.8533H149.147C155.233 77.8267 161.321 77.7722 167.41 77.69C161.319 77.6144 155.231 77.56 149.147 77.5267L144.043 77.5Z" fill="#DBDBDB"/>
<path d="M194.47 71.55C200.559 71.6256 206.647 71.68 212.733 71.7134L223.65 71.7434V71.3567L212.733 71.3867C206.642 71.4134 200.554 71.4678 194.47 71.55Z" fill="#DBDBDB"/>
<path d="M218.353 72.9667C214.164 72.9445 209.972 72.9278 205.777 72.9167H192.513H179.59C175.397 72.9167 171.204 72.9334 167.013 72.9667C171.207 72.9889 175.399 73.0056 179.59 73.0167H192.513H205.777C209.97 73.0056 214.162 72.9889 218.353 72.9667Z" fill="#DBDBDB"/>
<path d="M213.107 51.9534H159.537V64.9034H213.107V51.9534Z" fill="#EBEBEB"/>
<path d="M159.533 64.9034V51.9534H76.03V53.2167H77.83V63.64H76.03V64.9034H159.533Z" fill="#DBDBDB"/>
<path d="M157.343 53.2967H77.74V63.56H157.343V53.2967Z" fill="white"/>
<path d="M157.343 53.2967C137.5 53.3567 97.5733 53.4267 77.74 53.45L77.8933 53.2967V63.56C76.84 63.1 117.767 63.59 117.53 63.4434C127.443 63.4434 147.423 63.49 157.333 63.5234C157.277 63.7434 157.333 53.2534 157.333 53.2967H157.343ZM157.343 53.2967L157.38 63.56V63.5967H157.343C147.413 63.63 127.467 63.6734 117.54 63.6767L77.74 63.7267H77.5733V63.56V53.2967V53.1434H77.7266C97.5666 53.1667 137.497 53.2367 157.33 53.2967H157.343Z" fill="#DBDBDB"/>
<path d="M106.31 55.5667C100.223 55.5067 94.1355 55.4656 88.0466 55.4433L77.7366 55.4233V55.7067L88.0466 55.69C94.1266 55.6745 100.214 55.6333 106.31 55.5667Z" fill="#DBDBDB"/>
<path d="M157.343 58V57.7367L144.057 57.71L124.793 57.7467C118.707 57.7689 112.619 57.8089 106.53 57.8667C112.617 57.9267 118.704 57.9678 124.793 57.99L144.057 58.0267L157.343 58Z" fill="#DBDBDB"/>
<path d="M157.343 61.84V61.5067L138.343 61.5434C132.254 61.5656 126.167 61.6067 120.08 61.6667C126.167 61.7223 132.254 61.7623 138.343 61.7867L157.343 61.84Z" fill="#DBDBDB"/>
<path d="M157.343 55.54V55.2767H152.24C146.153 55.2967 140.067 55.3378 133.98 55.4C140.067 55.4578 146.153 55.4978 152.24 55.52L157.343 55.54Z" fill="#DBDBDB"/>
<path d="M106.92 59.9633C100.831 59.9078 94.7422 59.8667 88.6533 59.84L77.7366 59.82V60.1067L88.6533 60.0833C94.7444 60.0633 100.833 60.0233 106.92 59.9633Z" fill="#DBDBDB"/>
<path d="M83.0333 58.91C87.2267 58.9278 91.4189 58.94 95.61 58.9467H108.877H121.797C125.99 58.9467 130.182 58.9345 134.373 58.91C130.182 58.89 125.99 58.8778 121.797 58.8734H108.877H95.61C91.4167 58.88 87.2244 58.8922 83.0333 58.91Z" fill="#DBDBDB"/>
<path d="M109.467 25.89H35.1333V82.3267H109.467V25.89Z" fill="#EBEBEB"/>
<path d="M137.717 25.89H109.467V82.3267H137.717V25.89Z" fill="#DBDBDB"/>
<path d="M35.1333 53.89H109.467L51.4166 55.3533L35.1333 53.89Z" fill="#DBDBDB"/>
<path d="M109.467 75.4567H35.1333L93.1866 76.92L109.467 75.4567Z" fill="#DBDBDB"/>
<path d="M35.1333 37.9933H82.22L40.3633 39.1867L35.1333 37.9933Z" fill="#DBDBDB"/>
<path d="M109.467 67.0834H62.3833L104.237 68.2767L109.467 67.0834Z" fill="#DBDBDB"/>
<path d="M115.707 29.4H68.6233L110.48 30.5967L115.707 29.4Z" fill="#DBDBDB"/>
<path d="M67.3666 32.9767H120.473L111.62 33.6934L67.3666 32.9767Z" fill="#DBDBDB"/>
<path d="M42.36 59.9867H95.4666L86.6133 60.7034L42.36 59.9867Z" fill="#DBDBDB"/>
<path d="M75.0167 43.4067H109.467L115.623 45.32L75.0167 43.4067Z" fill="#EBEBEB"/>
<path d="M83.3199 62.4767H117.77L123.923 64.39L83.3199 62.4767Z" fill="#EBEBEB"/>
<path d="M75.7433 70.88H110.193L116.35 72.7933L75.7433 70.88Z" fill="#EBEBEB"/>
<path d="M25.6433 43.4067H60.0933L66.2466 45.32L25.6433 43.4067Z" fill="#DBDBDB"/>
<path d="M69.8466 32.38H35.4L29.2433 34.29L69.8466 32.38Z" fill="#EBEBEB"/>
<path d="M71.71 66.1267H37.26L31.1033 68.04L71.71 66.1267Z" fill="#EBEBEB"/>
<path d="M69.8466 68.97H35.4L29.2433 70.88L69.8466 68.97Z" fill="#DBDBDB"/>
<path d="M109.467 62.4767H137.13L143.287 64.39L109.467 62.4767Z" fill="#DBDBDB"/>
<path d="M119.123 53.89H140.577L137.717 52.3267L119.123 53.89Z" fill="#DBDBDB"/>
<path d="M18.9867 82.3333C87.2267 82.13 163.773 82.1267 232.013 82.3333C163.773 82.54 87.2267 82.5367 18.9867 82.3333Z" fill="#263238"/>
<path d="M156.317 129.523L189.42 121.387L231.48 127.247L196.947 135.987L156.317 129.523Z" fill="#DBDBDB"/>
<path d="M156.317 129.523L189.41 121.35C189.41 121.35 231.5 127.17 231.5 127.167L231.923 127.223L231.5 127.333L196.947 136.033C196.947 136.033 156.33 129.52 156.317 129.523ZM156.317 129.523C156.317 129.523 197.01 135.947 196.937 135.943L231.46 127.167V127.33C231.46 127.33 189.367 121.42 189.43 121.423L156.317 129.523Z" fill="#DBDBDB"/>
<path d="M195.63 133.72C197.667 133.093 199.767 132.51 201.873 131.933C203.98 131.357 206.12 130.803 208.267 130.267C210.413 129.73 212.6 129.187 214.793 128.677L218.1 127.913C219.227 127.673 220.33 127.42 221.47 127.193C220.47 127.51 219.41 127.8 218.38 128.107L215.23 128.977C213.13 129.56 210.983 130.11 208.837 130.643C206.69 131.177 204.503 131.723 202.31 132.233C200.117 132.743 197.903 133.253 195.63 133.72Z" fill="#C7C7C7"/>
<path d="M201.1 130.41C203.433 129.61 205.953 128.923 208.507 128.27C211.06 127.617 213.693 127 216.5 126.52C214.167 127.323 211.65 128.007 209.093 128.66C206.537 129.313 203.89 129.917 201.1 130.41Z" fill="#C7C7C7"/>
<path d="M185.657 132.397C187.693 131.77 189.793 131.187 191.9 130.61C194.007 130.033 196.147 129.48 198.293 128.943C200.44 128.407 202.627 127.863 204.817 127.353L208.127 126.593C209.25 126.353 210.357 126.1 211.497 125.87C210.497 126.187 209.437 126.48 208.407 126.783L205.257 127.657C203.153 128.237 201.01 128.787 198.863 129.323C196.717 129.86 194.53 130.403 192.337 130.913C190.143 131.423 187.93 131.93 185.657 132.397Z" fill="#C7C7C7"/>
<path d="M184.383 130.793C187.847 129.707 191.483 128.74 195.163 127.793C198.843 126.847 202.597 125.967 206.497 125.19C203.033 126.277 199.397 127.243 195.72 128.19C192.043 129.137 188.297 130.017 184.383 130.793Z" fill="#C7C7C7"/>
<path d="M188.71 127.777C190.62 127.083 192.71 126.507 194.833 125.96C196.957 125.413 199.167 124.92 201.523 124.533C199.613 125.23 197.523 125.803 195.403 126.35C193.283 126.897 191.07 127.39 188.71 127.777Z" fill="#C7C7C7"/>
<path d="M19.52 95.3534L65.4534 86.66L109.777 99.61L64.0734 108.617L19.52 95.3534Z" fill="#EBEBEB"/>
<path d="M19.52 95.3534L65.4567 86.6167C65.4567 86.6167 109.79 99.5334 109.79 99.53L110.123 99.6267L109.79 99.6934L64.0734 108.667C64.0567 108.667 19.5334 95.3634 19.52 95.3634V95.3534ZM19.52 95.3534L64.0867 108.573C63.9767 108.597 109.79 99.52 109.753 99.53V99.69L65.4434 86.69C65.53 86.67 19.5067 95.3567 19.52 95.3567V95.3534Z" fill="#DBDBDB"/>
<path d="M63.43 105.977C66.43 105.283 69.4533 104.643 72.49 104C75.5267 103.357 78.5867 102.743 81.65 102.137C84.7133 101.53 87.7933 100.937 90.8933 100.373L95.5433 99.5267C97.1067 99.26 98.6567 98.98 100.233 98.7267C98.74 99.0767 97.2333 99.3934 95.72 99.7267L91.1667 100.703C88.1333 101.35 85.07 101.96 82.01 102.567C78.95 103.173 75.8667 103.767 72.7667 104.33C69.6667 104.893 66.57 105.463 63.43 105.977Z" fill="#DBDBDB"/>
<path d="M75.2034 101.367C78.4767 100.523 81.87 99.8101 85.2734 99.1301C88.6767 98.4501 92.1434 97.8301 95.7034 97.3267C92.43 98.1701 89.0367 98.8834 85.6334 99.5634C82.23 100.243 78.7634 100.863 75.2034 101.367Z" fill="#DBDBDB"/>
<path d="M58.9 102.287C61.5167 101.667 64.17 101.097 66.83 100.53C69.49 99.9634 72.1634 99.4267 74.8567 98.89C77.55 98.3534 80.2467 97.84 82.97 97.35L87.0534 96.6167C88.43 96.3867 89.79 96.1434 91.1767 95.9267C89.8734 96.24 88.5467 96.5267 87.23 96.8267L83.2467 97.6834C80.58 98.2534 77.9134 98.7867 75.22 99.3234C72.5267 99.86 69.8334 100.37 67.11 100.863C64.3867 101.357 61.6667 101.847 58.9 102.287Z" fill="#DBDBDB"/>
<path d="M56.7634 100.417C59.18 99.8367 61.6334 99.3033 64.0967 98.7767C66.56 98.25 69.04 97.75 71.5267 97.2567C74.0134 96.7634 76.5267 96.2834 79.04 95.8334L82.8234 95.1667C84.1 94.9567 85.3634 94.7333 86.65 94.5367C85.4467 94.8333 84.2167 95.0967 83.0034 95.38L79.3167 96.1767C76.86 96.7067 74.3734 97.2034 71.8867 97.6967C69.4 98.19 66.8867 98.6667 64.3734 99.12C61.86 99.5733 59.33 100 56.7634 100.417Z" fill="#DBDBDB"/>
<path d="M45.32 100.38C48.32 99.6867 51.3433 99.0467 54.38 98.4C57.4167 97.7534 60.4767 97.1467 63.54 96.5367C66.6033 95.9267 69.6833 95.34 72.78 94.7734L77.4467 93.9267C79.01 93.6634 80.56 93.38 82.1367 93.1267C80.6433 93.48 79.1367 93.7934 77.6233 94.1267L73.0733 95.0934C70.04 95.7367 66.9767 96.3467 63.9167 96.9567C60.8567 97.5667 57.7733 98.1534 54.6733 98.72C51.5733 99.2867 48.46 99.8634 45.32 100.38Z" fill="#DBDBDB"/>
<path d="M44.94 98.1634C47.5867 97.5367 50.2733 96.96 52.9633 96.3867C55.6533 95.8134 58.37 95.27 61.0867 94.72C63.8033 94.17 66.5367 93.6567 69.29 93.16L73.4233 92.4167C74.8133 92.1834 76.1933 91.9367 77.5933 91.72C76.26 92.0367 74.9267 92.3234 73.5933 92.63L69.5633 93.4934C66.8767 94.07 64.16 94.61 61.4433 95.16C58.7267 95.71 55.99 96.2234 53.2367 96.72C50.4833 97.2167 47.7367 97.7167 44.94 98.1634Z" fill="#DBDBDB"/>
<path d="M36.2634 97.58C39.2634 96.8867 42.2867 96.2467 45.3267 95.6034C48.3667 94.96 51.4234 94.3334 54.5 93.74C57.5767 93.1467 60.6434 92.54 63.7434 91.9767L68.3934 91.13C69.9567 90.8634 71.51 90.5834 73.0834 90.33C71.59 90.68 70.0834 90.9967 68.5734 91.33L64.0234 92.3C60.99 92.9434 57.9267 93.5534 54.8634 94.16C51.8 94.7667 48.72 95.36 45.62 95.9234C42.52 96.4867 39.4067 97.0667 36.2634 97.58Z" fill="#DBDBDB"/>
<path d="M46.7867 93.2167C50.27 92.33 53.8633 91.5767 57.4833 90.8567C61.1033 90.1367 64.77 89.4734 68.54 88.9301C65.0567 89.8167 61.4667 90.5667 57.8433 91.29C54.22 92.0134 50.5567 92.6667 46.7867 93.2167Z" fill="#DBDBDB"/>
<path d="M86.8267 139.733L145.2 128.687L201.52 145.143L143.443 156.587L86.8267 139.733Z" fill="#EBEBEB"/>
<path d="M86.8333 139.733L145.2 128.643C145.2 128.643 201.533 145.067 201.533 145.063L201.867 145.16L201.533 145.227L143.443 156.63C143.427 156.633 86.8333 139.733 86.8333 139.733ZM86.8333 139.733L143.463 156.547C143.36 156.547 201.537 145.057 201.51 145.063V145.223L145.187 128.727C145.273 128.7 86.8133 139.75 86.8267 139.727L86.8333 139.733Z" fill="#DBDBDB"/>
<path d="M142.623 153.233C146.427 152.353 150.29 151.53 154.14 150.72C157.99 149.91 161.887 149.127 165.777 148.353C169.667 147.58 173.583 146.83 177.523 146.11L183.433 145.037C185.433 144.703 187.39 144.34 189.393 144.02C187.497 144.467 185.57 144.877 183.66 145.307L177.877 146.533C174.023 147.353 170.13 148.127 166.24 148.9C162.35 149.673 158.433 150.423 154.493 151.14C150.553 151.857 146.617 152.58 142.623 153.233Z" fill="#DBDBDB"/>
<path d="M157.587 147.373C161.747 146.303 166.047 145.397 170.38 144.533C174.713 143.67 179.113 142.867 183.64 142.24C179.48 143.313 175.177 144.22 170.843 145.083C166.51 145.947 162.11 146.733 157.587 147.373Z" fill="#DBDBDB"/>
<path d="M136.87 148.543C140.203 147.757 143.567 147.03 146.947 146.313C150.327 145.597 153.737 144.91 157.147 144.23C160.557 143.55 163.993 142.897 167.453 142.27L172.647 141.337C174.393 141.047 176.123 140.737 177.887 140.463C176.22 140.863 174.553 141.227 172.887 141.607L167.827 142.693C164.45 143.417 161.037 144.097 157.627 144.777C154.217 145.457 150.777 146.11 147.317 146.733C143.857 147.357 140.383 148 136.87 148.543Z" fill="#DBDBDB"/>
<path d="M134.167 146.167C137.237 145.43 140.357 144.753 143.5 144.087C146.643 143.42 149.78 142.78 152.94 142.15C156.1 141.52 159.273 140.917 162.487 140.343L167.3 139.483C168.92 139.22 170.523 138.933 172.16 138.683C170.63 139.06 169.07 139.397 167.523 139.753L162.84 140.753C159.72 141.42 156.56 142.057 153.4 142.687C150.24 143.317 147.067 143.92 143.853 144.493C140.64 145.067 137.413 145.667 134.167 146.167Z" fill="#DBDBDB"/>
<path d="M119.61 146.12C123.413 145.24 127.277 144.417 131.127 143.607C134.977 142.797 138.873 142.013 142.763 141.24C146.653 140.467 150.57 139.717 154.5 139L160.41 137.927C162.41 137.593 164.367 137.23 166.37 136.927C164.473 137.373 162.547 137.783 160.637 138.213L154.853 139.44C151 140.26 147.107 141.033 143.217 141.807C139.327 142.58 135.41 143.33 131.47 144.047C127.53 144.763 123.603 145.467 119.61 146.12Z" fill="#DBDBDB"/>
<path d="M119.13 143.303C122.493 142.51 125.907 141.773 129.327 141.05C132.747 140.327 136.193 139.63 139.66 138.94C143.127 138.25 146.587 137.59 150.087 136.96L155.323 136C157.093 135.707 158.843 135.393 160.627 135.113C158.96 135.517 157.243 135.883 155.55 136.27L150.43 137.37C147.013 138.1 143.56 138.79 140.097 139.477C136.633 140.163 133.17 140.81 129.67 141.457C126.17 142.103 122.683 142.737 119.13 143.303Z" fill="#DBDBDB"/>
<path d="M108.103 142.563C111.907 141.683 115.77 140.86 119.62 140.05C123.47 139.24 127.367 138.457 131.257 137.683C135.147 136.91 139.063 136.16 143.003 135.44L148.913 134.367C150.913 134.033 152.87 133.67 154.87 133.35C152.977 133.797 151.05 134.207 149.14 134.637L143.357 135.863C139.503 136.683 135.61 137.457 131.72 138.23C127.83 139.003 123.913 139.753 119.973 140.47C116.033 141.187 112.097 141.91 108.103 142.563Z" fill="#DBDBDB"/>
<path d="M121.477 137.017C125.903 135.893 130.477 134.937 135.067 134.017C139.657 133.097 144.33 132.257 149.12 131.567C144.693 132.693 140.12 133.65 135.527 134.567C130.933 135.483 126.267 136.333 121.477 137.017Z" fill="#DBDBDB"/>
<path d="M229.467 111.737L121.393 141.597V120.073L229.467 90.2133C235.193 100.773 229.467 111.737 229.467 111.737Z" fill="#A3BF44"/>
<path d="M15.9333 126.667L121.393 141.597V136.14L25.5767 124.42L15.9333 125V126.667Z" fill="#A3BF44"/>
<path d="M121.397 120.173C125.337 129.657 121.397 141.597 121.397 141.597L21.02 125.743V107.14L121.397 120.173Z" fill="#A3BF44"/>
<path d="M118.913 119.853C122.75 129.3 119.23 139.473 119.23 139.473L21.02 125.667V107.133L118.913 119.853Z" fill="white"/>
<path d="M118.913 119.853C119.043 120.22 119.42 121.253 119.55 121.617C120.33 124.212 120.725 126.907 120.723 129.617C120.738 132.959 120.251 136.285 119.28 139.483C119.327 139.63 21.03 125.78 20.9967 125.817L20.8533 125.797V125.667V107.133V106.963L21.02 106.987L69.9867 113.397L118.893 119.847L118.913 119.853ZM118.913 119.853C94.8333 116.617 44.4433 110.643 21.1667 107.14L21.1833 125.673L21.04 125.507C21.04 125.543 119.453 139.37 119.173 139.457C119.671 137.869 120.043 136.246 120.287 134.6C121.03 129.677 120.743 124.51 118.91 119.853H118.913Z" fill="#DBDBDB"/>
<path d="M68.54 115.167C84.9267 117.167 103.28 119.633 119.61 122.057C103.223 120.057 84.87 117.587 68.54 115.167Z" fill="#DBDBDB"/>
<path d="M21.02 113.92C35.0667 115.587 50.65 117.7 64.6467 119.803C50.59 118.137 35.0134 116.03 21.02 113.92Z" fill="#DBDBDB"/>
<path d="M23.36 115.75C47.23 118.75 73.9734 122.357 97.78 125.787C73.9134 122.787 47.17 119.18 23.36 115.75Z" fill="#DBDBDB"/>
<path d="M36.2634 122.047C61.0234 125.11 88.7667 128.79 113.467 132.283C88.71 129.223 60.9667 125.54 36.2634 122.047Z" fill="#DBDBDB"/>
<path d="M52.9067 125.967C74.5 128.667 98.7167 131.927 120.26 135.053C98.6567 132.36 74.4533 129.093 52.9067 125.967Z" fill="#DBDBDB"/>
<path d="M33.5 125.93C61.1667 129.457 92.1667 133.637 119.763 137.567C92.0967 134.043 61.0967 129.86 33.5 125.93Z" fill="#DBDBDB"/>
<path d="M121.397 120.173L229.467 90.2133L120.26 85.2667L15.9333 104.613V106.48L121.397 120.173Z" fill="#A3BF44"/>
<path d="M124.167 116.88C137.573 112.817 151.343 109.147 165.1 105.977C151.697 110.043 137.927 113.707 124.167 116.88Z" fill="#A3BF44"/>
<path d="M98.24 114.973C101.973 115.167 105.83 115.6 109.537 116.05C113.243 116.5 117.07 117.05 120.703 117.8C116.97 117.61 113.113 117.173 109.41 116.723C105.707 116.273 101.877 115.707 98.24 114.973Z" fill="#A3BF44"/>
<path d="M18.8334 104.977C44.2167 107.703 69.8034 110.92 95.0167 114.563C69.6134 111.843 44.03 108.62 18.8334 104.977Z" fill="#A3BF44"/>
<path d="M194.833 102.353C205.38 99.04 216.054 96.0211 226.857 93.2967C216.314 96.61 205.64 99.6289 194.833 102.353Z" fill="#A3BF44"/>
</svg>
