<svg width="19" height="12" viewBox="0 0 19 12" fill="none" xmlns="http://www.w3.org/2000/svg">
<path d="M1.892 12H0.724L4.932 0.544H6.356L10.612 12H9.412L8.292 8.96H3.012L1.892 12ZM5.492 2.16L3.364 7.952H7.924L5.78 2.16C5.732 2 5.652 1.808 5.636 1.696C5.62 1.792 5.556 2 5.492 2.16ZM11.8565 12H10.9805L14.1365 3.408H15.2045L18.3965 12H17.4965L16.6565 9.72H12.6965L11.8565 12ZM14.5565 4.62L12.9605 8.964H16.3805L14.7725 4.62C14.7365 4.5 14.6765 4.356 14.6645 4.272C14.6525 4.344 14.6045 4.5 14.5565 4.62Z" fill="#214636"/>
</svg>
