<svg width="16" height="17" viewBox="0 0 16 17" fill="none" xmlns="http://www.w3.org/2000/svg">
<path d="M8.83333 14.8333H13.8333V7.31496L8 2.77746L2.16667 7.31496V14.8333H7.16667V9.83329H8.83333V14.8333ZM15.5 15.6666C15.5 15.8876 15.4122 16.0996 15.2559 16.2559C15.0996 16.4122 14.8877 16.5 14.6667 16.5H1.33333C1.11232 16.5 0.900358 16.4122 0.744078 16.2559C0.587798 16.0996 0.5 15.8876 0.5 15.6666V6.90746C0.499912 6.78047 0.528848 6.65514 0.584597 6.54105C0.640346 6.42695 0.721433 6.3271 0.821667 6.24913L7.48833 1.06413C7.63462 0.950333 7.81467 0.88855 8 0.88855C8.18533 0.88855 8.36538 0.950333 8.51167 1.06413L15.1783 6.24913C15.2786 6.3271 15.3597 6.42695 15.4154 6.54105C15.4712 6.65514 15.5001 6.78047 15.5 6.90746V15.6666Z" fill="#858FA1"/>
</svg>
