<svg width="16" height="20" viewBox="0 0 16 20" fill="none" xmlns="http://www.w3.org/2000/svg">
<path d="M8.0002 2.926C8.28876 2.926 8.5655 2.81137 8.76954 2.60733C8.97357 2.40329 9.0882 2.12656 9.0882 1.838C9.0882 1.54944 8.97357 1.27271 8.76954 1.06867C8.5655 0.864628 8.28876 0.75 8.0002 0.75C7.71165 0.75 7.43491 0.864628 7.23087 1.06867C7.02683 1.27271 6.9122 1.54944 6.9122 1.838C6.9122 2.12656 7.02683 2.40329 7.23087 2.60733C7.43491 2.81137 7.71165 2.926 8.0002 2.926ZM13.4412 2.926C13.7298 2.926 14.0065 2.81137 14.2105 2.60733C14.4146 2.40329 14.5292 2.12656 14.5292 1.838C14.5292 1.54944 14.4146 1.27271 14.2105 1.06867C14.0065 0.864628 13.7298 0.75 13.4412 0.75C13.1526 0.75 12.8759 0.864628 12.6719 1.06867C12.4678 1.27271 12.3532 1.54944 12.3532 1.838C12.3532 2.12656 12.4678 2.40329 12.6719 2.60733C12.8759 2.81137 13.1526 2.926 13.4412 2.926ZM2.5592 2.926C2.84776 2.926 3.1245 2.81137 3.32854 2.60733C3.53257 2.40329 3.6472 2.12656 3.6472 1.838C3.6472 1.54944 3.53257 1.27271 3.32854 1.06867C3.1245 0.864628 2.84776 0.75 2.5592 0.75C2.27065 0.75 1.99391 0.864628 1.78987 1.06867C1.58583 1.27271 1.4712 1.54944 1.4712 1.838C1.4712 2.12656 1.58583 2.40329 1.78987 2.60733C1.99391 2.81137 2.27065 2.926 2.5592 2.926ZM8.0002 8.368C8.14315 8.368 8.28469 8.33985 8.41675 8.28514C8.54882 8.23044 8.66881 8.15026 8.76989 8.04919C8.87097 7.94811 8.95114 7.82811 9.00585 7.69605C9.06055 7.56399 9.0887 7.42244 9.0887 7.2795C9.0887 7.13656 9.06055 6.99501 9.00585 6.86295C8.95114 6.73089 8.87097 6.61089 8.76989 6.50981C8.66881 6.40874 8.54882 6.32856 8.41675 6.27386C8.28469 6.21915 8.14315 6.191 8.0002 6.191C7.71151 6.191 7.43465 6.30568 7.23052 6.50981C7.02638 6.71395 6.9117 6.99081 6.9117 7.2795C6.9117 7.56819 7.02638 7.84505 7.23052 8.04919C7.43465 8.25332 7.71151 8.368 8.0002 8.368ZM13.4412 8.368C13.5841 8.368 13.7257 8.33985 13.8578 8.28514C13.9898 8.23044 14.1098 8.15026 14.2109 8.04919C14.312 7.94811 14.3921 7.82811 14.4468 7.69605C14.5015 7.56399 14.5297 7.42244 14.5297 7.2795C14.5297 7.13656 14.5015 6.99501 14.4468 6.86295C14.3921 6.73089 14.312 6.61089 14.2109 6.50981C14.1098 6.40874 13.9898 6.32856 13.8578 6.27386C13.7257 6.21915 13.5841 6.191 13.4412 6.191C13.1525 6.191 12.8757 6.30568 12.6715 6.50981C12.4674 6.71395 12.3527 6.99081 12.3527 7.2795C12.3527 7.56819 12.4674 7.84505 12.6715 8.04919C12.8757 8.25332 13.1525 8.368 13.4412 8.368ZM2.5592 8.368C2.70215 8.368 2.84369 8.33985 2.97575 8.28514C3.10782 8.23044 3.22781 8.15026 3.32889 8.04919C3.42997 7.94811 3.51014 7.82811 3.56485 7.69605C3.61955 7.56399 3.6477 7.42244 3.6477 7.2795C3.6477 7.13656 3.61955 6.99501 3.56485 6.86295C3.51014 6.73089 3.42997 6.61089 3.32889 6.50981C3.22781 6.40874 3.10782 6.32856 2.97575 6.27386C2.84369 6.21915 2.70215 6.191 2.5592 6.191C2.27051 6.191 1.99365 6.30568 1.78952 6.50981C1.58538 6.71395 1.4707 6.99081 1.4707 7.2795C1.4707 7.56819 1.58538 7.84505 1.78952 8.04919C1.99365 8.25332 2.27051 8.368 2.5592 8.368ZM8.0002 13.809C8.28889 13.809 8.56576 13.6943 8.76989 13.4902C8.97402 13.2861 9.0887 13.0092 9.0887 12.7205C9.0887 12.4318 8.97402 12.1549 8.76989 11.9508C8.56576 11.7467 8.28889 11.632 8.0002 11.632C7.71151 11.632 7.43465 11.7467 7.23052 11.9508C7.02638 12.1549 6.9117 12.4318 6.9117 12.7205C6.9117 13.0092 7.02638 13.2861 7.23052 13.4902C7.43465 13.6943 7.71151 13.809 8.0002 13.809ZM8.0002 19.25C8.28876 19.25 8.5655 19.1354 8.76954 18.9313C8.97357 18.7273 9.0882 18.4506 9.0882 18.162C9.0882 17.8734 8.97357 17.5967 8.76954 17.3927C8.5655 17.1886 8.28876 17.074 8.0002 17.074C7.71165 17.074 7.43491 17.1886 7.23087 17.3927C7.02683 17.5967 6.9122 17.8734 6.9122 18.162C6.9122 18.4506 7.02683 18.7273 7.23087 18.9313C7.43491 19.1354 7.71165 19.25 8.0002 19.25ZM13.4412 13.809C13.7299 13.809 14.0068 13.6943 14.2109 13.4902C14.415 13.2861 14.5297 13.0092 14.5297 12.7205C14.5297 12.4318 14.415 12.1549 14.2109 11.9508C14.0068 11.7467 13.7299 11.632 13.4412 11.632C13.1525 11.632 12.8757 11.7467 12.6715 11.9508C12.4674 12.1549 12.3527 12.4318 12.3527 12.7205C12.3527 13.0092 12.4674 13.2861 12.6715 13.4902C12.8757 13.6943 13.1525 13.809 13.4412 13.809ZM2.5592 13.809C2.84789 13.809 3.12476 13.6943 3.32889 13.4902C3.53302 13.2861 3.6477 13.0092 3.6477 12.7205C3.6477 12.4318 3.53302 12.1549 3.32889 11.9508C3.12476 11.7467 2.84789 11.632 2.5592 11.632C2.27051 11.632 1.99365 11.7467 1.78952 11.9508C1.58538 12.1549 1.4707 12.4318 1.4707 12.7205C1.4707 13.0092 1.58538 13.2861 1.78952 13.4902C1.99365 13.6943 2.27051 13.809 2.5592 13.809Z" stroke="#64748A" stroke-width="1.5" stroke-linecap="round" stroke-linejoin="round"/>
</svg>
