<svg width="14" height="18" viewBox="0 0 14 18" fill="none" xmlns="http://www.w3.org/2000/svg">
<path d="M0.999978 0.666656H12.6666C12.8877 0.666656 13.0996 0.754454 13.2559 0.910734C13.4122 1.06701 13.5 1.27898 13.5 1.49999V17.4525C13.5001 17.527 13.4802 17.6002 13.4424 17.6644C13.4046 17.7286 13.3503 17.7815 13.2851 17.8176C13.2199 17.8536 13.1462 17.8716 13.0718 17.8695C12.9973 17.8675 12.9247 17.8455 12.8616 17.8058L6.83331 14.025L0.804978 17.805C0.741951 17.8446 0.669468 17.8666 0.595063 17.8687C0.520659 17.8708 0.44705 17.8529 0.381891 17.8169C0.316732 17.7809 0.262401 17.7282 0.224547 17.6641C0.186694 17.6 0.1667 17.5269 0.166645 17.4525V1.49999C0.166645 1.27898 0.254443 1.06701 0.410723 0.910734C0.567003 0.754454 0.778965 0.666656 0.999978 0.666656ZM11.8333 2.33332H1.83331V15.1933L6.83331 12.0592L11.8333 15.1933V2.33332Z" fill="#858FA1"/>
</svg>
