<svg width="21" height="22" viewBox="0 0 21 22" fill="none" xmlns="http://www.w3.org/2000/svg">
<path opacity="0.5" d="M3.03141 18.4686C4.31281 19.75 6.37521 19.75 10.5 19.75C14.6247 19.75 16.6872 19.75 17.9686 18.4686C19.25 17.1872 19.25 15.1247 19.25 11C19.25 6.87521 19.25 4.81281 17.9686 3.53141C16.6872 2.25 14.6247 2.25 10.5 2.25C6.37521 2.25 4.31281 2.25 3.03141 3.53141C1.75 4.81281 1.75 6.87521 1.75 11C1.75 15.1247 1.75 17.1872 3.03141 18.4686Z" fill="#C0C0C0"/>
<path d="M7 11.875C7.48324 11.875 7.875 11.4833 7.875 11C7.875 10.5167 7.48324 10.125 7 10.125C6.51675 10.125 6.125 10.5167 6.125 11C6.125 11.4833 6.51675 11.875 7 11.875Z" fill="#C0C0C0"/>
<path d="M10.5 11.875C10.9833 11.875 11.375 11.4833 11.375 11C11.375 10.5167 10.9833 10.125 10.5 10.125C10.0167 10.125 9.625 10.5167 9.625 11C9.625 11.4833 10.0167 11.875 10.5 11.875Z" fill="#C0C0C0"/>
<path d="M14 11.875C14.4833 11.875 14.875 11.4833 14.875 11C14.875 10.5167 14.4833 10.125 14 10.125C13.5167 10.125 13.125 10.5167 13.125 11C13.125 11.4833 13.5167 11.875 14 11.875Z" fill="#C0C0C0"/>
</svg>
