<svg width="16" height="16" viewBox="0 0 16 16" fill="none" xmlns="http://www.w3.org/2000/svg">
<path d="M7.33334 1.33331C10.6453 1.33331 13.3333 4.02131 13.3333 7.33331C13.3333 10.6453 10.6453 13.3333 7.33334 13.3333C4.02134 13.3333 1.33334 10.6453 1.33334 7.33331C1.33334 4.02131 4.02134 1.33331 7.33334 1.33331ZM7.33334 12C9.91134 12 12 9.91131 12 7.33331C12 4.75531 9.91134 2.66665 7.33334 2.66665C4.75534 2.66665 2.66668 4.75531 2.66668 7.33331C2.66668 9.91131 4.75534 12 7.33334 12ZM12.99 12.0473L14.876 13.9326L13.9327 14.876L12.0473 12.99L12.99 12.0473Z" fill="#214636"/>
</svg>
