<svg width="150" height="90" viewBox="0 0 150 90" fill="none" xmlns="http://www.w3.org/2000/svg">
<path d="M147.036 78.5496C146.434 78.7841 145.819 78.9811 145.194 79.1397C131.487 82.7197 102.464 77.9357 92.7205 77.6167C86.8204 77.536 81.0758 79.5091 76.4706 83.1982L76.1357 83.4932L76.0719 83.557L75.9044 83.7164L52.2153 43.283C52.1787 43.2272 52.1467 43.1686 52.1196 43.1076C53.0368 42.2228 54.0859 41.4858 55.2292 40.9229C61.911 37.4863 72.42 38.3315 78.6393 39.5833C85.959 41.0504 103.357 38.4989 103.357 38.4989L147.036 78.5496Z" fill="#214636"/>
<path opacity="0.8" d="M147.036 78.5496C146.434 78.7841 145.819 78.9811 145.194 79.1397C131.487 82.7197 102.464 77.9357 92.7205 77.6167C86.8204 77.536 81.0758 79.5091 76.4706 83.1982L76.1357 83.4932L76.0719 83.557L75.9044 83.7164L52.2153 43.283C52.1787 43.2272 52.1467 43.1686 52.1196 43.1076C53.0368 42.2228 54.0859 41.4858 55.2292 40.9229C61.911 37.4863 72.42 38.3315 78.6393 39.5833C85.959 41.0504 103.357 38.4989 103.357 38.4989L147.036 78.5496Z" fill="white"/>
<g opacity="0.1">
<path d="M137.938 74.858C129.826 76.2069 121.571 76.475 113.388 75.6553C105.414 74.7543 97.4968 72.2746 89.3957 72.8248C85.2477 73.1489 81.1942 74.2298 77.4355 76.0141V76.0779C85.1778 72.5856 93.4941 72.7291 101.691 74.1165C109.433 75.4321 117.016 76.6839 124.902 76.4527C129.298 76.3587 133.676 75.8541 137.978 74.9457C138.066 74.9856 138.01 74.842 137.938 74.858Z" fill="black"/>
<path d="M132.428 70.1695C127.876 71.9476 123.131 72.1469 118.291 71.9715C113.085 71.8048 107.899 71.229 102.783 70.2492C93.8289 68.527 84.6036 68.2639 76.1118 72.115C80.6441 70.5337 85.3761 69.5969 90.169 69.3323C95.3279 69.133 100.287 70.1775 105.319 71.0944C110.155 71.9161 115.052 72.3375 119.958 72.3542C124.176 72.426 128.609 72.1948 132.46 70.321C132.564 70.2652 132.484 70.1296 132.428 70.1695Z" fill="black"/>
<path d="M128.737 66.988C126.22 67.7607 123.631 68.2789 121.01 68.5349C118.717 68.6095 116.422 68.4761 114.153 68.1362C108.859 67.5063 103.557 66.9721 98.2622 66.3422C103.716 66.996 109.154 67.7694 114.6 68.4073C119.353 69.2644 124.251 68.7925 128.753 67.0438C128.809 67.0518 128.785 66.9721 128.737 66.988Z" fill="black"/>
<path d="M121.321 59.3735C113.659 63.1689 104.163 61.2074 96.0536 60.4101C87.9446 59.6127 79.4289 59.2539 72.1332 63.0652C72.1247 63.0689 72.1174 63.0751 72.1123 63.0829C72.1072 63.0907 72.1045 63.0998 72.1045 63.1091C72.1045 63.1184 72.1072 63.1275 72.1123 63.1353C72.1174 63.1431 72.1247 63.1492 72.1332 63.1529C80.3698 59.517 89.2841 60.0194 98.023 60.9363C105.885 61.7337 113.97 62.9456 121.353 59.4373C121.393 59.4214 121.361 59.3576 121.321 59.3735Z" fill="black"/>
<path d="M116.554 55.4825C109.05 58.8713 101.061 57.9304 93.1354 56.9975C89.1379 56.4054 85.0908 56.2184 81.0556 56.4394C77.269 56.7797 73.5576 57.7022 70.0523 59.1743C69.9725 59.1743 70.0523 59.3337 70.124 59.3018C74.1897 57.6847 78.5078 56.7941 82.8816 56.6706C86.9379 56.6624 90.9891 56.9582 95.0012 57.5557C102.114 58.4088 110.103 59.254 116.641 55.634C116.729 55.6101 116.649 55.4427 116.554 55.4825Z" fill="black"/>
<path d="M112.551 51.8067C108.917 53.2675 105.062 54.1032 101.149 54.2785C97.4728 54.3799 93.7943 54.2013 90.1454 53.7443C82.6503 52.9469 75.1234 53.0984 68.019 55.9131C68.0063 55.9131 67.9942 55.9181 67.9852 55.9271C67.9762 55.936 67.9712 55.9482 67.9712 55.9609C67.9712 55.9736 67.9762 55.9858 67.9852 55.9947C67.9942 56.0037 68.0063 56.0087 68.019 56.0087C71.8195 54.7677 75.7493 53.9651 79.732 53.6167C83.7281 53.4659 87.7297 53.6606 91.6922 54.1988C98.5255 54.8845 106.26 55.1476 112.559 51.9184C112.726 51.9024 112.647 51.7748 112.551 51.8067Z" fill="black"/>
<path d="M109.25 48.7529C99.9129 53.6725 89.3719 50.0286 79.437 50.7702V50.818C89.2763 50.4751 100.168 54.0074 109.353 48.9442C109.372 48.9275 109.385 48.9049 109.39 48.88C109.394 48.8551 109.39 48.8295 109.378 48.8072C109.366 48.785 109.347 48.7675 109.323 48.7577C109.3 48.7478 109.274 48.7461 109.25 48.7529Z" fill="black"/>
<path d="M104.011 43.9051C100.43 45.0524 96.7258 45.7698 92.9757 46.042C89.2609 46.1273 85.5461 45.8765 81.8766 45.2924C75.4978 44.4951 68.6646 43.5303 62.533 46.0898C62.4851 46.0898 62.533 46.1855 62.533 46.1695C69.2706 43.7775 76.2952 44.8619 83.2002 45.731C86.5874 46.2408 90.0157 46.425 93.4381 46.2812C97.0356 45.984 100.586 45.2695 104.019 44.1522C104.226 44.1283 104.178 43.8493 104.011 43.9051Z" fill="black"/>
</g>
<path d="M146.509 55.4506C145.996 55.8286 145.464 56.1799 144.915 56.5031C132.612 63.5118 103.333 66.438 93.8846 68.6945C88.1758 70.1401 83.1455 73.5218 79.652 78.2627C79.5483 78.4062 79.4686 78.5338 79.4048 78.6374C79.3927 78.6637 79.3765 78.6879 79.357 78.7092L79.2373 78.9165L45.7727 46.0897L45.6372 45.9542C46.2926 44.8595 47.1128 43.8725 48.0691 43.0279C53.6505 37.9728 64.016 36.0512 70.323 35.6365C77.7702 35.1502 93.8687 28.1654 93.8687 28.1654L146.509 55.4506Z" fill="#214636"/>
<path opacity="0.9" d="M146.509 55.4506C145.996 55.8286 145.464 56.1799 144.915 56.5031C132.612 63.5118 103.333 66.438 93.8846 68.6945C88.1758 70.1401 83.1455 73.5218 79.652 78.2627C79.5483 78.4062 79.4686 78.5338 79.4048 78.6374C79.3927 78.6637 79.3765 78.6879 79.357 78.7092L79.2373 78.9165L45.7727 46.0897L45.6372 45.9542C46.2926 44.8595 47.1128 43.8725 48.0691 43.0279C53.6505 37.9728 64.016 36.0512 70.323 35.6365C77.7702 35.1502 93.8687 28.1654 93.8687 28.1654L146.509 55.4506Z" fill="white"/>
<g opacity="0.1">
<path d="M136.766 54.2545C129.288 57.6766 121.389 60.0898 113.276 61.4306C105.303 62.6426 97.05 62.3077 89.3556 64.9549C85.4225 66.3564 81.7796 68.4671 78.6074 71.1821C78.6074 71.1821 78.6074 71.2698 78.6632 71.238C85.2254 65.8479 93.2866 63.8226 101.571 63.0253C109.385 62.2758 117.032 61.5103 124.582 59.2299C128.805 57.9988 132.903 56.3731 136.822 54.3741C136.925 54.3342 136.854 54.2146 136.766 54.2545Z" fill="black"/>
<path d="M130.18 51.1688C126.249 54.0792 121.72 55.4984 117.007 56.5908C111.938 57.7938 106.782 58.5936 101.587 58.9828C92.489 59.6526 83.5189 61.8054 76.3188 67.7536C80.2854 65.0344 84.6149 62.8871 89.18 61.3749C94.1076 59.844 99.1708 59.5569 104.274 59.1264C109.158 58.6562 113.995 57.7868 118.738 56.527C122.82 55.4984 127.046 54.135 130.283 51.3044C130.379 51.2167 130.267 51.113 130.18 51.1688Z" fill="black"/>
<path d="M125.826 49.0479C123.598 50.4475 121.237 51.6227 118.778 52.5562C116.581 53.224 114.329 53.6911 112.048 53.9516C106.778 54.7489 101.515 55.5941 96.2446 56.3436C101.683 55.5463 107.128 54.8845 112.558 54.0871C115.005 53.8155 117.413 53.2644 119.734 52.4446C121.903 51.5503 123.967 50.422 125.89 49.0798C125.914 49.0957 125.874 49.024 125.826 49.0479Z" fill="black"/>
<path d="M116.689 43.6499C110.31 49.3031 100.599 49.8851 92.5614 51.2247C84.6438 52.5483 76.2158 54.4141 70.1161 59.9955C70.0683 59.9955 70.1161 60.0991 70.1799 60.0593C77.1886 54.4061 85.9275 52.5802 94.6026 51.1768C102.401 49.925 110.55 48.9682 116.737 43.6579C116.769 43.6499 116.721 43.602 116.689 43.6499Z" fill="black"/>
<path d="M111.067 41.1142C104.689 46.3369 96.7151 47.493 88.8612 48.6731C84.844 49.143 80.8849 50.0192 77.0446 51.2884C73.4802 52.5983 70.1397 54.4515 67.1415 56.7821C67.0618 56.8459 67.1415 56.9495 67.2372 56.8937C70.7388 54.2786 74.6704 52.2953 78.8545 51.0332C82.7778 49.966 86.7758 49.1957 90.8147 48.7289C97.9031 47.7003 105.829 46.4325 111.203 41.2418C111.267 41.1621 111.155 41.0505 111.067 41.1142Z" fill="black"/>
<path d="M106.252 38.6105C103.122 40.9644 99.6177 42.7732 95.8862 43.9607C92.3645 45.0322 88.7659 45.8319 85.122 46.3528C77.6748 47.5169 70.4508 49.6458 64.3192 54.2066C64.2714 54.2066 64.3192 54.3262 64.383 54.2943C67.7328 52.1178 71.3202 50.3308 75.0754 48.9681C78.906 47.7738 82.833 46.9148 86.8124 46.4006C93.5898 45.2843 101.165 43.5222 106.363 38.77C106.443 38.6584 106.331 38.5468 106.252 38.6105Z" fill="black"/>
<path d="M102.265 36.5216C94.5305 43.6977 83.4075 42.9004 74.0068 46.2253C74.0068 46.2253 74.0068 46.2891 74.0068 46.2731C83.4075 43.3788 94.8814 43.9608 102.4 36.705C102.425 36.687 102.441 36.6601 102.445 36.6302C102.45 36.6003 102.442 36.5698 102.424 36.5455C102.406 36.5212 102.379 36.505 102.349 36.5005C102.32 36.496 102.289 36.5036 102.265 36.5216Z" fill="black"/>
<path d="M95.9417 33.2045C92.7846 35.2443 89.396 36.9012 85.8473 38.1401C82.2812 39.189 78.6279 39.9148 74.9316 40.3088C68.5529 41.17 61.7196 42.0471 56.481 46.1374C56.4332 46.1374 56.4811 46.2331 56.5369 46.2092C62.4133 42.1507 69.4778 41.3534 76.3748 40.3966C79.7754 40.0045 83.1312 39.2917 86.3975 38.2676C89.7899 37.0449 93.0321 35.4399 96.0613 33.4836C96.2128 33.364 96.0932 33.1088 95.9417 33.2045Z" fill="black"/>
</g>
<path d="M79.7556 88.8036C79.7556 88.8514 79.5404 89.4016 79.4287 89.4574C77.5547 88.7946 75.7318 87.9951 73.9749 87.0654C73.2254 86.5232 31.8192 59.9556 31.6278 59.222C31.4365 58.4885 32.1301 57.9144 31.9467 57.3084C31.7633 56.7024 -0.744444 1.49418 0.0130348 0.585202C0.603071 -0.124436 25.9746 8.20783 36.1328 12.4736C38.485 13.4623 40.0239 14.2278 40.2392 14.6105C47.798 27.998 62.7403 60.2745 70.0599 76.3171C72.6752 82.0341 74.3177 85.686 74.3177 85.686L146.517 81.3005C146.517 81.3005 150.169 84.7451 149.994 84.9604C149.173 85.973 79.8035 88.7557 79.7556 88.8036Z" fill="#214636"/>
<path d="M147.155 83.1343L74.3177 85.6858C74.3177 85.6858 40.5421 15.4237 40.1435 14.9453L2.10205 0.911987H7.77119L42.4239 13.1353C45.955 21.441 50.2639 29.3941 55.293 36.8882C64.1117 49.6458 72.8984 63.998 75.2825 69.8266C76.955 74.2822 77.1727 79.1532 75.9044 83.7403L76.0719 83.5808L76.1357 83.517L76.4705 83.222C81.0323 79.4547 86.8066 77.4714 92.7205 77.6406C102.448 78.1908 132.779 82.4247 145.194 79.1635L146.119 80.0964L147.155 83.1343Z" fill="#214636"/>
<path opacity="0.7" d="M147.155 83.1343L74.3177 85.6858C74.3177 85.6858 40.5421 15.4237 40.1435 14.9453L2.10205 0.911987H7.77119L42.4239 13.1353C45.955 21.441 50.2639 29.3941 55.293 36.8882C64.1117 49.6458 72.8984 63.998 75.2825 69.8266C76.955 74.2822 77.1727 79.1532 75.9044 83.7403L76.0719 83.5808L76.1357 83.517L76.4705 83.222C81.0323 79.4547 86.8066 77.4714 92.7205 77.6406C102.448 78.1908 132.779 82.4247 145.194 79.1635L146.119 80.0964L147.155 83.1343Z" fill="white"/>
<g opacity="0.1">
<path d="M129.319 82.1538C119.745 82.6773 110.144 82.4106 100.614 81.3564C96.1491 80.9259 91.652 80.288 87.163 80.6787C82.8993 81.0861 78.7872 82.4723 75.147 84.7292C75.147 84.7292 75.147 84.785 75.147 84.7691C79.1091 82.5181 83.5445 81.229 88.0959 81.0056C92.585 80.7664 97.066 81.4122 101.531 81.8029C110.757 82.7355 120.045 82.8795 129.295 82.2335C129.295 82.2335 129.359 82.1538 129.319 82.1538Z" fill="black"/>
<path d="M114.887 83.9318C111.323 83.7325 107.711 83.7165 104.179 83.5172C100.646 83.3179 97.0744 82.9989 93.5182 82.7199C87.2909 82.2175 80.8085 82.0501 75.0437 84.8249C74.9959 84.8249 75.0437 84.9126 75.0437 84.8966C81.2072 82.2574 87.9288 82.5046 94.4591 83.0946C101.213 83.6767 108.07 84.3225 114.847 84.0753C114.866 84.0806 114.887 84.0781 114.904 84.0684C114.921 84.0587 114.934 84.0426 114.939 84.0235C114.944 84.0045 114.942 83.9841 114.932 83.9669C114.922 83.9497 114.906 83.9371 114.887 83.9318Z" fill="black"/>
<path d="M69.7889 63.0175C65.4513 55.5623 60.2207 48.6653 55.644 41.3775C53.0187 37.292 50.7587 32.9829 48.8904 28.5004H48.8267C51.8964 36.2187 56.3058 43.1636 60.8905 50.0287C65.4753 56.8939 70.2115 63.5836 73.4806 71.0627C75.2826 75.2009 76.5424 79.8335 75.2985 84.2827C75.2985 84.3943 75.2347 84.7212 75.2985 84.6096C77.5311 77.1943 73.4248 69.2049 69.7889 63.0175Z" fill="black"/>
<path d="M75.2745 84.5697C76.7256 77.1623 72.1329 71.6048 68.9595 65.9038C65.0259 58.8818 60.8132 52.0247 56.3215 45.3323C56.3215 45.3323 56.2418 45.3323 56.2657 45.3323C60.4916 51.7961 64.4784 58.4008 68.2259 65.1463C71.5508 71.1344 76.5741 77.5291 75.1309 84.5697C75.0831 84.761 75.2426 84.7292 75.2745 84.5697Z" fill="black"/>
<path d="M70.8018 71.0786C67.4902 65.5503 64.112 60.0486 60.6675 54.5735C63.6868 59.7722 66.7513 64.947 69.8609 70.0978C72.7473 74.8819 75.4982 79.4666 74.9241 85.2474C74.9241 85.3032 75.0038 85.3112 75.0197 85.2474C76.0324 80.1603 73.3533 75.3364 70.8018 71.0786Z" fill="black"/>
<path d="M108.899 80.9577C102.799 80.9577 96.8349 79.084 90.7432 79.1398C85.098 79.1956 79.8674 81.4361 75.2349 84.5538C77.8023 83.294 80.2263 81.779 82.9133 80.7584C85.6926 79.7321 88.6428 79.2476 91.6044 79.3311C97.3931 79.4268 103.046 81.0056 108.843 80.9737C108.986 81.0135 109.018 80.9577 108.899 80.9577Z" fill="black"/>
<path d="M75.0195 85.2395C75.4501 82.6561 74.4375 80.28 73.1936 78.0633C71.5989 75.2089 69.8209 72.4819 68.1145 69.6513C64.6461 63.9663 61.3211 58.1935 59.1045 51.8865C61.058 57.8586 64.0959 63.3842 67.3092 68.7583C68.9438 71.4852 70.6342 74.1882 72.2528 76.9311C73.7438 79.4428 75.3066 82.1936 74.876 85.2235C74.8282 85.3351 75.0195 85.3431 75.0195 85.2395Z" fill="black"/>
</g>
</svg>
