<svg width="150" height="90" viewBox="0 0 150 90" fill="none" xmlns="http://www.w3.org/2000/svg">
<path d="M147.036 78.5497C146.434 78.7841 145.819 78.9812 145.194 79.1397C131.487 82.7198 102.464 77.9357 92.7205 77.6168C86.8204 77.5361 81.0758 79.5092 76.4706 83.1982L76.1357 83.4932L76.0719 83.557L75.9044 83.7165L52.2153 43.2831C52.1787 43.2273 52.1467 43.1686 52.1196 43.1077C53.0368 42.2228 54.0859 41.4858 55.2292 40.9229C61.911 37.4864 72.42 38.3316 78.6393 39.5834C85.959 41.0505 103.357 38.499 103.357 38.499L147.036 78.5497Z" fill="#A3BF44"/>
<path opacity="0.8" d="M147.036 78.5497C146.434 78.7841 145.819 78.9812 145.194 79.1397C131.487 82.7198 102.464 77.9357 92.7205 77.6168C86.8204 77.5361 81.0758 79.5092 76.4706 83.1982L76.1357 83.4932L76.0719 83.557L75.9044 83.7165L52.2153 43.2831C52.1787 43.2273 52.1467 43.1686 52.1196 43.1077C53.0368 42.2228 54.0859 41.4858 55.2292 40.9229C61.911 37.4864 72.42 38.3316 78.6393 39.5834C85.959 41.0505 103.357 38.499 103.357 38.499L147.036 78.5497Z" fill="white"/>
<g opacity="0.1">
<path d="M137.938 74.8579C129.826 76.2068 121.571 76.4749 113.388 75.6552C105.414 74.7542 97.4968 72.2745 89.3957 72.8246C85.2477 73.1487 81.1942 74.2297 77.4355 76.014V76.0778C85.1778 72.5854 93.4941 72.729 101.691 74.1163C109.433 75.432 117.016 76.6838 124.902 76.4526C129.298 76.3585 133.676 75.854 137.978 74.9456C138.066 74.9854 138.01 74.8419 137.938 74.8579Z" fill="black"/>
<path d="M132.428 70.1695C127.876 71.9475 123.131 72.1469 118.291 71.9715C113.085 71.8048 107.899 71.2289 102.783 70.2492C93.8289 68.5269 84.6036 68.2638 76.1118 72.115C80.6441 70.5336 85.3761 69.5969 90.169 69.3322C95.3279 69.1329 100.287 70.1774 105.319 71.0944C110.155 71.916 115.052 72.3374 119.958 72.3542C124.176 72.4259 128.609 72.1947 132.46 70.3209C132.564 70.2651 132.484 70.1296 132.428 70.1695Z" fill="black"/>
<path d="M128.737 66.988C126.22 67.7607 123.631 68.2789 121.01 68.5349C118.717 68.6095 116.422 68.4761 114.153 68.1362C108.859 67.5063 103.557 66.9721 98.2622 66.3422C103.716 66.996 109.154 67.7694 114.6 68.4073C119.353 69.2644 124.251 68.7925 128.753 67.0438C128.809 67.0518 128.785 66.9721 128.737 66.988Z" fill="black"/>
<path d="M121.321 59.3734C113.659 63.1688 104.163 61.2073 96.0536 60.4099C87.9446 59.6126 79.4289 59.2538 72.1332 63.0651C72.1247 63.0688 72.1174 63.0749 72.1123 63.0827C72.1072 63.0905 72.1045 63.0996 72.1045 63.109C72.1045 63.1183 72.1072 63.1274 72.1123 63.1352C72.1174 63.143 72.1247 63.1491 72.1332 63.1528C80.3698 59.5169 89.2841 60.0192 98.023 60.9362C105.885 61.7335 113.97 62.9455 121.353 59.4372C121.393 59.4212 121.361 59.3574 121.321 59.3734Z" fill="black"/>
<path d="M116.554 55.4824C109.05 58.8711 101.061 57.9302 93.1354 56.9973C89.1379 56.4052 85.0908 56.2182 81.0556 56.4392C77.269 56.7795 73.5576 57.702 70.0523 59.1741C69.9725 59.1741 70.0523 59.3335 70.124 59.3017C74.1897 57.6845 78.5078 56.7939 82.8816 56.6704C86.9379 56.6622 90.9891 56.958 95.0012 57.5555C102.114 58.4086 110.103 59.2538 116.641 55.6339C116.729 55.6099 116.649 55.4425 116.554 55.4824Z" fill="black"/>
<path d="M112.551 51.8065C108.917 53.2673 105.062 54.103 101.149 54.2783C97.4728 54.3797 93.7943 54.2011 90.1454 53.7441C82.6503 52.9468 75.1234 53.0982 68.019 55.9129C68.0063 55.9129 67.9942 55.9179 67.9852 55.9269C67.9762 55.9359 67.9712 55.948 67.9712 55.9607C67.9712 55.9734 67.9762 55.9856 67.9852 55.9946C67.9942 56.0035 68.0063 56.0086 68.019 56.0086C71.8195 54.7675 75.7493 53.9649 79.732 53.6165C83.7281 53.4657 87.7297 53.6604 91.6922 54.1986C98.5255 54.8843 106.26 55.1474 112.559 51.9182C112.726 51.9022 112.647 51.7747 112.551 51.8065Z" fill="black"/>
<path d="M109.25 48.7527C99.9129 53.6724 89.3719 50.0285 79.437 50.77V50.8179C89.2763 50.475 100.168 54.0073 109.353 48.9441C109.372 48.9274 109.385 48.9048 109.39 48.8799C109.394 48.855 109.39 48.8293 109.378 48.8071C109.366 48.7849 109.347 48.7674 109.323 48.7575C109.3 48.7477 109.274 48.746 109.25 48.7527Z" fill="black"/>
<path d="M104.011 43.9049C100.43 45.0523 96.7258 45.7697 92.9757 46.0418C89.2609 46.1272 85.5461 45.8763 81.8766 45.2923C75.4978 44.495 68.6646 43.5302 62.533 46.0897C62.4851 46.0897 62.533 46.1854 62.533 46.1694C69.2706 43.7774 76.2952 44.8618 83.2002 45.7309C86.5874 46.2406 90.0157 46.4249 93.4381 46.281C97.0356 45.9838 100.586 45.2694 104.019 44.1521C104.226 44.1282 104.178 43.8491 104.011 43.9049Z" fill="black"/>
</g>
<path d="M146.509 55.4506C145.996 55.8286 145.464 56.1799 144.915 56.5031C132.612 63.5118 103.333 66.438 93.8846 68.6945C88.1758 70.1401 83.1455 73.5218 79.652 78.2627C79.5483 78.4062 79.4686 78.5338 79.4048 78.6374C79.3927 78.6637 79.3765 78.6879 79.357 78.7092L79.2373 78.9165L45.7727 46.0897L45.6372 45.9542C46.2926 44.8595 47.1128 43.8725 48.0691 43.0279C53.6505 37.9728 64.016 36.0512 70.323 35.6365C77.7702 35.1502 93.8687 28.1654 93.8687 28.1654L146.509 55.4506Z" fill="#A3BF44"/>
<path opacity="0.9" d="M146.509 55.4506C145.996 55.8286 145.464 56.1799 144.915 56.5031C132.612 63.5118 103.333 66.438 93.8846 68.6945C88.1758 70.1401 83.1455 73.5218 79.652 78.2627C79.5483 78.4062 79.4686 78.5338 79.4048 78.6374C79.3927 78.6637 79.3765 78.6879 79.357 78.7092L79.2373 78.9165L45.7727 46.0897L45.6372 45.9542C46.2926 44.8595 47.1128 43.8725 48.0691 43.0279C53.6505 37.9728 64.016 36.0512 70.323 35.6365C77.7702 35.1502 93.8687 28.1654 93.8687 28.1654L146.509 55.4506Z" fill="white"/>
<g opacity="0.1">
<path d="M136.766 54.2545C129.288 57.6767 121.389 60.0898 113.276 61.4307C105.303 62.6426 97.05 62.3077 89.3556 64.9549C85.4225 66.3565 81.7796 68.4671 78.6074 71.1822C78.6074 71.1822 78.6074 71.2699 78.6632 71.238C85.2254 65.848 93.2866 63.8227 101.571 63.0254C109.385 62.2758 117.032 61.5104 124.582 59.23C128.805 57.9989 132.903 56.3731 136.822 54.3741C136.925 54.3343 136.854 54.2147 136.766 54.2545Z" fill="black"/>
<path d="M130.18 51.1689C126.249 54.0792 121.72 55.4985 117.007 56.5909C111.938 57.7938 106.782 58.5937 101.587 58.9829C92.489 59.6527 83.5189 61.8055 76.3188 67.7537C80.2854 65.0345 84.6149 62.8872 89.18 61.3749C94.1076 59.844 99.1708 59.557 104.274 59.1264C109.158 58.6562 113.995 57.7869 118.738 56.5271C122.82 55.4985 127.046 54.135 130.283 51.3044C130.379 51.2167 130.267 51.1131 130.18 51.1689Z" fill="black"/>
<path d="M125.826 49.0478C123.598 50.4474 121.237 51.6226 118.778 52.5562C116.581 53.224 114.329 53.691 112.048 53.9515C106.778 54.7489 101.515 55.594 96.2446 56.3436C101.683 55.5462 107.128 54.8844 112.558 54.0871C115.005 53.8154 117.413 53.2643 119.734 52.4445C121.903 51.5502 123.967 50.4219 125.89 49.0797C125.914 49.0957 125.874 49.0239 125.826 49.0478Z" fill="black"/>
<path d="M116.689 43.6499C110.31 49.3031 100.599 49.8851 92.5614 51.2247C84.6438 52.5483 76.2158 54.4141 70.1161 59.9955C70.0683 59.9955 70.1161 60.0991 70.1799 60.0593C77.1886 54.4061 85.9275 52.5802 94.6026 51.1768C102.401 49.925 110.55 48.9682 116.737 43.6579C116.769 43.6499 116.721 43.602 116.689 43.6499Z" fill="black"/>
<path d="M111.067 41.1143C104.689 46.3369 96.7151 47.4931 88.8612 48.6731C84.844 49.1431 80.8849 50.0193 77.0446 51.2884C73.4802 52.5984 70.1397 54.4515 67.1415 56.7822C67.0618 56.8459 67.1415 56.9496 67.2372 56.8938C70.7388 54.2786 74.6704 52.2953 78.8545 51.0333C82.7778 49.9661 86.7758 49.1958 90.8147 48.729C97.9031 47.7004 105.829 46.4326 111.203 41.2419C111.267 41.1621 111.155 41.0505 111.067 41.1143Z" fill="black"/>
<path d="M106.252 38.6106C103.122 40.9644 99.6177 42.7732 95.8862 43.9608C92.3645 45.0322 88.7659 45.8319 85.122 46.3528C77.6748 47.517 70.4508 49.6459 64.3192 54.2067C64.2714 54.2067 64.3192 54.3263 64.383 54.2944C67.7328 52.1178 71.3202 50.3308 75.0754 48.9681C78.906 47.7739 82.833 46.9149 86.8124 46.4007C93.5898 45.2844 101.165 43.5223 106.363 38.7701C106.443 38.6584 106.331 38.5468 106.252 38.6106Z" fill="black"/>
<path d="M102.265 36.5216C94.5305 43.6977 83.4075 42.9004 74.0068 46.2253C74.0068 46.2253 74.0068 46.2891 74.0068 46.2731C83.4075 43.3788 94.8814 43.9608 102.4 36.705C102.425 36.687 102.441 36.6601 102.445 36.6302C102.45 36.6003 102.442 36.5698 102.424 36.5455C102.406 36.5212 102.379 36.505 102.349 36.5005C102.32 36.496 102.289 36.5036 102.265 36.5216Z" fill="black"/>
<path d="M95.9417 33.2046C92.7846 35.2445 89.396 36.9013 85.8473 38.1402C82.2812 39.1891 78.6279 39.915 74.9316 40.309C68.5529 41.1701 61.7196 42.0472 56.481 46.1376C56.4332 46.1376 56.4811 46.2332 56.5369 46.2093C62.4133 42.1508 69.4778 41.3535 76.3748 40.3967C79.7754 40.0046 83.1312 39.2918 86.3975 38.2678C89.7899 37.045 93.0321 35.44 96.0613 33.4837C96.2128 33.3641 96.0932 33.1089 95.9417 33.2046Z" fill="black"/>
</g>
<path d="M79.7556 88.8036C79.7556 88.8514 79.5404 89.4016 79.4287 89.4574C77.5547 88.7946 75.7318 87.9951 73.9749 87.0654C73.2254 86.5232 31.8192 59.9556 31.6278 59.222C31.4365 58.4885 32.1301 57.9144 31.9467 57.3084C31.7633 56.7024 -0.744444 1.49418 0.0130348 0.585202C0.603071 -0.124436 25.9746 8.20783 36.1328 12.4736C38.485 13.4623 40.0239 14.2278 40.2392 14.6105C47.798 27.998 62.7403 60.2745 70.0599 76.3171C72.6752 82.0341 74.3177 85.686 74.3177 85.686L146.517 81.3005C146.517 81.3005 150.169 84.7451 149.994 84.9604C149.173 85.973 79.8035 88.7557 79.7556 88.8036Z" fill="#A3BF44"/>
<path d="M147.155 83.1344L74.3177 85.686C74.3177 85.686 40.5421 15.4238 40.1435 14.9454L2.10205 0.912109H7.77119L42.4239 13.1354C45.955 21.4412 50.2639 29.3942 55.293 36.8884C64.1117 49.6459 72.8984 63.9981 75.2825 69.8267C76.955 74.2824 77.1727 79.1533 75.9044 83.7404L76.0719 83.581L76.1357 83.5172L76.4705 83.2222C81.0323 79.4549 86.8066 77.4716 92.7205 77.6407C102.448 78.1909 132.779 82.4248 145.194 79.1637L146.119 80.0966L147.155 83.1344Z" fill="#A3BF44"/>
<path opacity="0.7" d="M147.155 83.1344L74.3177 85.686C74.3177 85.686 40.5421 15.4238 40.1435 14.9454L2.10205 0.912109H7.77119L42.4239 13.1354C45.955 21.4412 50.2639 29.3942 55.293 36.8884C64.1117 49.6459 72.8984 63.9981 75.2825 69.8267C76.955 74.2824 77.1727 79.1533 75.9044 83.7404L76.0719 83.581L76.1357 83.5172L76.4705 83.2222C81.0323 79.4549 86.8066 77.4716 92.7205 77.6407C102.448 78.1909 132.779 82.4248 145.194 79.1637L146.119 80.0966L147.155 83.1344Z" fill="white"/>
<g opacity="0.1">
<path d="M129.319 82.1537C119.745 82.6772 110.144 82.4105 100.614 81.3564C96.1491 80.9258 91.652 80.2879 87.163 80.6786C82.8993 81.0861 78.7872 82.4722 75.147 84.7291C75.147 84.7291 75.147 84.785 75.147 84.769C79.1091 82.5181 83.5445 81.229 88.0959 81.0055C92.585 80.7663 97.066 81.4122 101.531 81.8029C110.757 82.7354 120.045 82.8795 129.295 82.2334C129.295 82.2334 129.359 82.1537 129.319 82.1537Z" fill="black"/>
<path d="M114.887 83.9318C111.323 83.7325 107.711 83.7165 104.179 83.5172C100.646 83.3179 97.0744 82.9989 93.5182 82.7199C87.2909 82.2175 80.8085 82.0501 75.0437 84.8249C74.9959 84.8249 75.0437 84.9126 75.0437 84.8966C81.2072 82.2574 87.9288 82.5046 94.4591 83.0946C101.213 83.6767 108.07 84.3225 114.847 84.0753C114.866 84.0806 114.887 84.0781 114.904 84.0684C114.921 84.0587 114.934 84.0426 114.939 84.0235C114.944 84.0045 114.942 83.9841 114.932 83.9669C114.922 83.9497 114.906 83.9371 114.887 83.9318Z" fill="black"/>
<path d="M69.7889 63.0174C65.4513 55.5622 60.2207 48.6652 55.644 41.3774C53.0187 37.2919 50.7587 32.9828 48.8904 28.5003H48.8267C51.8964 36.2186 56.3058 43.1635 60.8905 50.0287C65.4753 56.8938 70.2115 63.5835 73.4806 71.0626C75.2826 75.2009 76.5424 79.8335 75.2985 84.2826C75.2985 84.3943 75.2347 84.7212 75.2985 84.6095C77.5311 77.1942 73.4248 69.2048 69.7889 63.0174Z" fill="black"/>
<path d="M75.2745 84.5697C76.7256 77.1623 72.1329 71.6048 68.9595 65.9038C65.0259 58.8818 60.8132 52.0247 56.3215 45.3323C56.3215 45.3323 56.2418 45.3323 56.2657 45.3323C60.4916 51.7961 64.4784 58.4008 68.2259 65.1463C71.5508 71.1344 76.5741 77.5291 75.1309 84.5697C75.0831 84.761 75.2426 84.7292 75.2745 84.5697Z" fill="black"/>
<path d="M70.8018 71.0786C67.4902 65.5503 64.112 60.0487 60.6675 54.5735C63.6868 59.7722 66.7513 64.947 69.8609 70.0979C72.7473 74.882 75.4982 79.4667 74.9241 85.2475C74.9241 85.3033 75.0038 85.3112 75.0197 85.2475C76.0324 80.1604 73.3533 75.3364 70.8018 71.0786Z" fill="black"/>
<path d="M108.899 80.9577C102.799 80.9577 96.8349 79.084 90.7432 79.1398C85.098 79.1956 79.8674 81.4361 75.2349 84.5538C77.8023 83.294 80.2263 81.779 82.9133 80.7584C85.6926 79.7321 88.6428 79.2476 91.6044 79.3311C97.3931 79.4268 103.046 81.0056 108.843 80.9737C108.986 81.0135 109.018 80.9577 108.899 80.9577Z" fill="black"/>
<path d="M75.0195 85.2395C75.4501 82.6561 74.4375 80.28 73.1936 78.0633C71.5989 75.2089 69.8209 72.4819 68.1145 69.6513C64.6461 63.9663 61.3211 58.1935 59.1045 51.8865C61.058 57.8586 64.0959 63.3842 67.3092 68.7583C68.9438 71.4852 70.6342 74.1882 72.2528 76.9311C73.7438 79.4428 75.3066 82.1936 74.876 85.2235C74.8282 85.3351 75.0195 85.3431 75.0195 85.2395Z" fill="black"/>
</g>
</svg>
