<svg width="24" height="24" viewBox="0 0 24 24" fill="none" xmlns="http://www.w3.org/2000/svg">
<path d="M17.618 5.968L19.071 4.515L20.485 5.929L19.032 7.382C20.3049 8.97513 20.9991 10.9533 21.0008 12.9925C21.0025 15.0317 20.3116 17.0111 19.0413 18.6063C17.7711 20.2015 15.9967 21.3181 14.0089 21.7731C12.0211 22.2281 9.93769 21.9946 8.09998 21.1107C6.26226 20.2269 4.77917 18.7451 3.89364 16.9082C3.00812 15.0713 2.77266 12.9882 3.22583 10.9999C3.679 9.01172 4.79394 7.23633 6.38801 5.9646C7.98209 4.69286 9.96079 4.00018 12 4C14.125 4 16.078 4.736 17.618 5.968ZM12 20C12.9193 20 13.8295 19.8189 14.6788 19.4672C15.5281 19.1154 16.2997 18.5998 16.9497 17.9497C17.5998 17.2997 18.1154 16.5281 18.4672 15.6788C18.8189 14.8295 19 13.9193 19 13C19 12.0807 18.8189 11.1705 18.4672 10.3212C18.1154 9.47194 17.5998 8.70026 16.9497 8.05025C16.2997 7.40024 15.5281 6.88463 14.6788 6.53284C13.8295 6.18106 12.9193 6 12 6C10.1435 6 8.36301 6.7375 7.05025 8.05025C5.7375 9.36301 5 11.1435 5 13C5 14.8565 5.7375 16.637 7.05025 17.9497C8.36301 19.2625 10.1435 20 12 20ZM11 8H13V14H11V8ZM8 1H16V3H8V1Z" fill="#214636"/>
</svg>
