<svg width="301" height="300" viewBox="0 0 301 300" fill="none" xmlns="http://www.w3.org/2000/svg">
<path d="M59.258 35.4241H38.162V42.1381H59.258V35.4241Z" fill="#EBEBEB"/>
<path d="M263.138 95.5501H241.442V88.2361H263.138V95.5501ZM242.042 94.9501H262.538V88.8361H242.042V94.9501Z" fill="#EBEBEB"/>
<path d="M47.492 26.958C43.988 27.018 35.006 27.168 31.622 27.21H26.396L26.672 26.934V33.648L26.372 33.348C29.876 33.348 38.81 33.396 42.194 33.444L47.468 33.51L47.324 33.648L47.468 26.934L47.492 26.958ZM47.492 26.958L47.63 33.672V33.816H47.486C44.852 33.852 39.566 33.912 36.938 33.93L26.39 33.972H26.09V33.672V26.958V26.688H26.36H31.682C35.042 26.724 43.982 26.874 47.456 26.934L47.492 26.958Z" fill="#EBEBEB"/>
<path d="M82.7479 187.05C79.2439 187.11 70.2559 187.26 66.8779 187.302H61.6519L61.9219 187.026V193.74L61.6219 193.44C65.1259 193.44 74.0599 193.488 77.4439 193.536L82.7179 193.602L82.5739 193.74L82.7179 187.026L82.7479 187.05ZM82.7479 187.05L82.8859 193.764V193.908H82.742C80.108 193.944 74.8219 194.004 72.1939 194.028L61.6459 194.064H61.3459V193.758V187.044V186.774H61.6219H66.9439C70.3039 186.81 79.2439 186.966 82.7179 187.02L82.7479 187.05Z" fill="#EBEBEB"/>
<path d="M70.976 178.584C67.472 178.644 58.49 178.794 55.112 178.836H49.886L50.156 178.56V185.274L49.856 184.974C53.354 184.974 62.288 185.022 65.672 185.07L70.946 185.136L70.808 185.274L70.946 178.56L70.976 178.584ZM70.976 178.584L71.12 185.298V185.442H70.97C68.342 185.478 63.056 185.538 60.422 185.562L49.88 185.598H49.58V185.292V178.578V178.308H49.856H55.172C58.538 178.344 67.478 178.5 70.946 178.554L70.976 178.584Z" fill="#EBEBEB"/>
<path d="M59.258 187.05H38.162V193.764H59.258V187.05Z" fill="#EBEBEB"/>
<path d="M274.604 26.958H253.508V33.672H274.604V26.958Z" fill="#EBEBEB"/>
<path d="M262.838 262.134H241.742V268.848H262.838V262.134Z" fill="#EBEBEB"/>
<path d="M274.604 253.668C271.1 253.728 262.118 253.878 258.734 253.92H253.508L253.784 253.644V260.358L253.484 260.058C256.988 260.058 265.922 260.1 269.306 260.154L274.58 260.214L274.436 260.358L274.58 253.644L274.604 253.668ZM274.604 253.668L274.748 260.382V260.526H274.604C271.97 260.562 266.69 260.622 264.056 260.64L253.508 260.682H253.208V260.4L253.238 253.686V253.41H253.508H258.83C262.19 253.446 271.136 253.596 274.604 253.656V253.668Z" fill="#EBEBEB"/>
<path d="M47.492 262.134C43.988 262.194 35.006 262.344 31.622 262.38L26.396 262.41L26.672 262.134V268.848L26.372 268.548C29.876 268.548 38.81 268.59 42.194 268.638L47.468 268.704L47.324 268.848L47.468 262.134H47.492ZM47.492 262.134L47.63 268.848V268.992H47.486C44.852 269.028 39.566 269.088 36.938 269.106L26.39 269.148H26.09V268.848V262.134V261.858H26.36H31.682C35.042 261.894 43.982 262.044 47.456 262.104L47.492 262.134Z" fill="#EBEBEB"/>
<path d="M271.832 24.984H129.776V127.608H271.832V24.984Z" fill="white"/>
<path d="M273.572 129.348H128.036V23.238H273.572V129.348ZM131.516 125.862H270.116V26.724H131.516V125.862Z" fill="#EBEBEB"/>
<path d="M234.248 101.328C234.191 101.329 234.135 101.315 234.086 101.286L226.556 96.942C226.506 96.9123 226.464 96.8703 226.434 96.8199C226.405 96.7695 226.389 96.7124 226.388 96.654V87.96C226.388 87.9016 226.404 87.8442 226.434 87.7937C226.463 87.7432 226.505 87.7013 226.556 87.672L234.086 83.322C234.136 83.2925 234.193 83.2769 234.251 83.2769C234.309 83.2769 234.366 83.2925 234.416 83.322L241.946 87.672C241.997 87.7013 242.039 87.7432 242.068 87.7937C242.098 87.8442 242.113 87.9016 242.114 87.96V96.654C242.113 96.7124 242.097 96.7695 242.067 96.8199C242.038 96.8703 241.996 96.9123 241.946 96.942L234.416 101.286C234.365 101.315 234.307 101.33 234.248 101.328ZM227.048 96.462L234.248 100.614L241.448 96.462V88.152L234.248 83.994L227.048 88.152V96.462Z" fill="#EBEBEB"/>
<path d="M249.308 101.328C249.249 101.329 249.191 101.315 249.14 101.286L241.616 96.942C241.565 96.9132 241.523 96.8714 241.493 96.8208C241.463 96.7702 241.448 96.7126 241.448 96.654V87.96C241.447 87.9013 241.463 87.8435 241.492 87.7927C241.522 87.742 241.565 87.7003 241.616 87.672L249.14 83.322C249.191 83.2925 249.249 83.277 249.308 83.277C249.367 83.277 249.425 83.2925 249.476 83.322L257 87.672C257.052 87.7003 257.094 87.742 257.124 87.7927C257.154 87.8435 257.169 87.9013 257.168 87.96V96.654C257.168 96.7126 257.153 96.7702 257.123 96.8208C257.094 96.8714 257.051 96.9132 257 96.942L249.5 101.286C249.442 101.319 249.375 101.334 249.308 101.328ZM242.108 96.462L249.308 100.614L256.508 96.462V88.152L249.308 83.994L242.108 88.152V96.462Z" fill="#EBEBEB"/>
<path d="M249.308 83.946C249.264 83.946 249.221 83.9373 249.18 83.9203C249.14 83.9034 249.103 83.8785 249.072 83.8472C249.042 83.816 249.018 83.7789 249.001 83.7381C248.985 83.6974 248.977 83.6538 248.978 83.61V78.45C248.978 78.3625 249.013 78.2785 249.075 78.2166C249.136 78.1548 249.22 78.12 249.308 78.12C249.395 78.12 249.479 78.1548 249.541 78.2166C249.603 78.2785 249.638 78.3625 249.638 78.45V83.61C249.639 83.6538 249.631 83.6974 249.615 83.7381C249.598 83.7789 249.574 83.816 249.543 83.8472C249.513 83.8785 249.476 83.9034 249.436 83.9203C249.395 83.9373 249.352 83.946 249.308 83.946Z" fill="#EBEBEB"/>
<path d="M256.838 88.29C256.778 88.2913 256.718 88.2757 256.666 88.2449C256.614 88.2142 256.572 88.1695 256.544 88.116C256.503 88.0386 256.494 87.9483 256.518 87.8642C256.543 87.7801 256.6 87.709 256.676 87.666L261.056 85.266C261.094 85.2449 261.136 85.2316 261.179 85.2268C261.223 85.2221 261.267 85.2259 261.308 85.2382C261.35 85.2505 261.389 85.2709 261.423 85.2984C261.457 85.3258 261.485 85.3597 261.506 85.398C261.527 85.4362 261.54 85.4782 261.545 85.5215C261.55 85.5649 261.546 85.6087 261.534 85.6506C261.522 85.6924 261.501 85.7314 261.474 85.7653C261.446 85.7992 261.412 85.8273 261.374 85.848L256.994 88.248C256.947 88.2766 256.893 88.2912 256.838 88.29Z" fill="#EBEBEB"/>
<path d="M228.092 96.0001C228.004 95.9985 227.92 95.9624 227.858 95.8996C227.797 95.8367 227.762 95.7522 227.762 95.6641V89.0401C227.762 88.9526 227.797 88.8686 227.859 88.8067C227.921 88.7448 228.004 88.7101 228.092 88.7101C228.179 88.7101 228.263 88.7448 228.325 88.8067C228.387 88.8686 228.422 88.9526 228.422 89.0401V95.6761C228.42 95.7626 228.385 95.845 228.323 95.9056C228.262 95.9661 228.178 96.0001 228.092 96.0001Z" fill="#EBEBEB"/>
<path d="M243.632 96.0001C243.588 96.0001 243.545 95.9914 243.504 95.9744C243.464 95.9574 243.427 95.9326 243.396 95.9013C243.366 95.87 243.342 95.8329 243.325 95.7922C243.309 95.7515 243.301 95.7079 243.302 95.6641V89.0401C243.302 88.9526 243.337 88.8686 243.399 88.8067C243.46 88.7448 243.544 88.7101 243.632 88.7101C243.719 88.7101 243.803 88.7448 243.865 88.8067C243.927 88.8686 243.962 88.9526 243.962 89.0401V95.6761C243.96 95.7626 243.925 95.845 243.863 95.9056C243.801 95.9661 243.718 96.0001 243.632 96.0001Z" fill="#EBEBEB"/>
<path d="M240.248 89.016C240.188 89.0178 240.13 89.001 240.08 88.968L234.344 85.632C234.269 85.5881 234.214 85.5161 234.191 85.4318C234.169 85.3475 234.18 85.2576 234.224 85.182C234.245 85.1432 234.274 85.1092 234.309 85.0819C234.343 85.0547 234.383 85.0348 234.426 85.0236C234.469 85.0124 234.513 85.01 234.557 85.0166C234.601 85.0232 234.643 85.0386 234.68 85.062L240.416 88.398C240.491 88.4419 240.546 88.5139 240.569 88.5982C240.591 88.6826 240.58 88.7724 240.536 88.848C240.507 88.8987 240.465 88.9408 240.414 88.9703C240.364 88.9997 240.306 89.0155 240.248 89.016Z" fill="#EBEBEB"/>
<path d="M255.206 89.0161C255.146 89.0179 255.088 89.0011 255.038 88.9681L249.302 85.6321C249.264 85.6109 249.231 85.5824 249.204 85.5481C249.177 85.5138 249.158 85.4745 249.147 85.4325C249.135 85.3905 249.133 85.3467 249.139 85.3037C249.145 85.2607 249.16 85.2193 249.182 85.1821C249.203 85.1441 249.232 85.1108 249.266 85.0841C249.3 85.0574 249.34 85.0379 249.382 85.0267C249.423 85.0155 249.467 85.0129 249.51 85.0189C249.553 85.025 249.595 85.0397 249.632 85.0621L255.368 88.3981C255.424 88.4369 255.466 88.492 255.49 88.556C255.513 88.6199 255.516 88.6894 255.498 88.7551C255.481 88.8208 255.443 88.8794 255.391 88.9229C255.338 88.9664 255.274 88.9927 255.206 88.9981V89.0161Z" fill="#EBEBEB"/>
<path d="M210.782 82.2661C210.723 82.2665 210.666 82.252 210.614 82.2241L203.09 77.8801C203.04 77.8504 202.998 77.8083 202.969 77.7579C202.939 77.7075 202.923 77.6504 202.922 77.5921V68.8981C202.923 68.8396 202.938 68.7823 202.968 68.7318C202.997 68.6813 203.039 68.6393 203.09 68.6101L210.614 64.2601C210.666 64.2332 210.724 64.2192 210.782 64.2192C210.84 64.2192 210.898 64.2332 210.95 64.2601L218.48 68.6101C218.53 68.6396 218.571 68.6818 218.6 68.7323C218.628 68.7829 218.643 68.8401 218.642 68.8981V77.5921C218.642 77.65 218.627 77.7069 218.599 77.7574C218.57 77.8078 218.53 77.8501 218.48 77.8801L210.95 82.2001C210.901 82.2373 210.843 82.2601 210.782 82.2661ZM203.582 77.4001L210.782 81.5521L217.982 77.4001V69.0901L210.782 64.9321L203.582 69.0901V77.4001Z" fill="#EBEBEB"/>
<path d="M210.782 64.8841C210.694 64.8825 210.61 64.8464 210.548 64.7836C210.487 64.7207 210.452 64.6362 210.452 64.5481V59.4001C210.452 59.3125 210.487 59.2286 210.549 59.1667C210.611 59.1048 210.694 59.0701 210.782 59.0701C210.867 59.0732 210.948 59.1093 211.008 59.1709C211.067 59.2324 211.1 59.3146 211.1 59.4001V64.5601C211.099 64.6445 211.065 64.7252 211.006 64.7854C210.946 64.8457 210.866 64.881 210.782 64.8841Z" fill="#EBEBEB"/>
<path d="M225.086 63.7201C224.998 63.7201 224.914 63.6853 224.853 63.6234C224.791 63.5615 224.756 63.4776 224.756 63.3901V58.2301C224.755 58.1865 224.763 58.1432 224.779 58.1028C224.796 58.0624 224.82 58.0257 224.851 57.9949C224.882 57.9641 224.918 57.9398 224.959 57.9235C224.999 57.9072 225.042 57.8993 225.086 57.9001C225.173 57.9001 225.257 57.9349 225.319 57.9967C225.381 58.0586 225.416 58.1426 225.416 58.2301V63.3901C225.416 63.4776 225.381 63.5615 225.319 63.6234C225.257 63.6853 225.173 63.7201 225.086 63.7201Z" fill="#EBEBEB"/>
<path d="M218.3 69.228C218.24 69.2293 218.18 69.2137 218.128 69.1829C218.076 69.1522 218.034 69.1075 218.006 69.054C217.966 68.9763 217.958 68.8865 217.983 68.8028C218.007 68.7192 218.063 68.6481 218.138 68.604L222.518 66.204C222.556 66.1829 222.598 66.1696 222.641 66.1648C222.685 66.1601 222.729 66.1639 222.77 66.1762C222.812 66.1885 222.851 66.2089 222.885 66.2363C222.919 66.2638 222.947 66.2977 222.968 66.336C222.989 66.3742 223.002 66.4162 223.007 66.4595C223.012 66.5028 223.008 66.5467 222.996 66.5886C222.984 66.6304 222.963 66.6694 222.936 66.7033C222.908 66.7372 222.874 66.7653 222.836 66.786L218.456 69.186C218.409 69.2146 218.355 69.2292 218.3 69.228Z" fill="#EBEBEB"/>
<path d="M231.764 69.228C231.709 69.2292 231.655 69.2146 231.608 69.186L227.228 66.786C227.19 66.7653 227.156 66.7372 227.128 66.7033C227.101 66.6694 227.08 66.6304 227.068 66.5886C227.056 66.5467 227.052 66.5028 227.057 66.4595C227.062 66.4162 227.075 66.3742 227.096 66.336C227.117 66.2977 227.145 66.2638 227.179 66.2363C227.213 66.2089 227.252 66.1885 227.293 66.1762C227.335 66.1639 227.379 66.1601 227.423 66.1648C227.466 66.1696 227.508 66.1829 227.546 66.204L231.926 68.604C232.002 68.647 232.059 68.7181 232.083 68.8022C232.108 68.8862 232.099 68.9766 232.058 69.054C232.03 69.1075 231.988 69.1522 231.936 69.1829C231.884 69.2137 231.824 69.2293 231.764 69.228Z" fill="#EBEBEB"/>
<path d="M216.872 76.9501C216.784 76.9485 216.7 76.9124 216.638 76.8496C216.577 76.7867 216.542 76.7022 216.542 76.6141V69.9781C216.542 69.8905 216.577 69.8066 216.639 69.7447C216.701 69.6828 216.784 69.6481 216.872 69.6481C216.96 69.6481 217.043 69.6828 217.105 69.7447C217.167 69.8066 217.202 69.8905 217.202 69.9781V76.6141C217.203 76.6579 217.195 76.7015 217.179 76.7422C217.162 76.7829 217.138 76.82 217.107 76.8513C217.077 76.8826 217.04 76.9074 217 76.9244C216.959 76.9413 216.916 76.9501 216.872 76.9501Z" fill="#EBEBEB"/>
<path d="M204.932 69.954C204.874 69.9541 204.817 69.9393 204.767 69.9109C204.716 69.8825 204.674 69.8415 204.644 69.792C204.621 69.7543 204.607 69.7125 204.601 69.669C204.594 69.6255 204.597 69.5813 204.608 69.5388C204.619 69.4963 204.639 69.4565 204.666 69.4217C204.692 69.3869 204.726 69.3578 204.764 69.336L210.5 66C210.58 65.9563 210.673 65.9459 210.76 65.9712C210.848 65.9965 210.921 66.0555 210.965 66.135C211.009 66.2146 211.019 66.3083 210.994 66.3955C210.968 66.4827 210.91 66.5563 210.83 66.6L205.1 69.912C205.048 69.94 204.991 69.9544 204.932 69.954Z" fill="#EBEBEB"/>
<path d="M167.84 50.0281C167.784 50.0262 167.728 50.0118 167.678 49.9861L160.148 45.6361C160.097 45.6069 160.055 45.5649 160.026 45.5144C159.996 45.4639 159.981 45.4066 159.98 45.3481V36.6541C159.981 36.5957 159.997 36.5386 160.027 36.4882C160.056 36.4378 160.098 36.3958 160.148 36.3661L167.678 32.0221C167.728 31.9925 167.785 31.9769 167.843 31.9769C167.901 31.9769 167.958 31.9925 168.008 32.0221L175.538 36.3661C175.588 36.3961 175.628 36.4383 175.657 36.4888C175.685 36.5393 175.7 36.5962 175.7 36.6541V45.3481C175.701 45.4061 175.686 45.4633 175.658 45.5138C175.629 45.5644 175.588 45.6066 175.538 45.6361L168.008 49.9861C167.956 50.0119 167.898 50.0263 167.84 50.0281ZM160.64 45.1561L167.84 49.3141L175.04 45.1561V36.8461L167.84 32.6941L160.64 36.8461V45.1561Z" fill="#EBEBEB"/>
<path d="M175.37 36.99C175.31 36.9887 175.252 36.972 175.2 36.9416C175.149 36.9111 175.106 36.8678 175.076 36.816C175.036 36.7383 175.028 36.6484 175.053 36.5648C175.077 36.4812 175.133 36.4101 175.208 36.366L179.588 33.966C179.666 33.9231 179.758 33.9129 179.843 33.9377C179.929 33.9624 180.001 34.0201 180.044 34.098C180.083 34.1757 180.092 34.2656 180.067 34.3492C180.043 34.4328 179.987 34.5039 179.912 34.548L175.532 36.948C175.481 36.973 175.426 36.9873 175.37 36.99Z" fill="#EBEBEB"/>
<path d="M161.99 44.7061C161.946 44.7069 161.903 44.6989 161.863 44.6826C161.822 44.6663 161.786 44.6421 161.755 44.6112C161.724 44.5804 161.7 44.5437 161.683 44.5033C161.667 44.4629 161.659 44.4197 161.66 44.3761V37.7401C161.659 37.6965 161.667 37.6533 161.683 37.6128C161.7 37.5724 161.724 37.5357 161.755 37.5049C161.786 37.4741 161.822 37.4498 161.863 37.4336C161.903 37.4173 161.946 37.4093 161.99 37.4101C162.077 37.4101 162.161 37.4449 162.223 37.5067C162.285 37.5686 162.32 37.6526 162.32 37.7401V44.4001C162.314 44.4834 162.276 44.5613 162.215 44.6181C162.154 44.6749 162.073 44.7063 161.99 44.7061Z" fill="#EBEBEB"/>
<path d="M173.9 37.716C173.843 37.7149 173.787 37.6983 173.738 37.668L168.002 34.332C167.963 34.3109 167.929 34.2821 167.902 34.2473C167.875 34.2125 167.855 34.1726 167.844 34.1299C167.832 34.0872 167.83 34.0426 167.837 33.999C167.843 33.9553 167.859 33.9135 167.882 33.876C167.926 33.8005 167.998 33.7455 168.082 33.7231C168.167 33.7006 168.256 33.7124 168.332 33.756L174.068 37.092C174.144 37.137 174.199 37.2101 174.221 37.2954C174.244 37.3807 174.232 37.4714 174.188 37.548C174.159 37.599 174.117 37.6415 174.067 37.671C174.016 37.7006 173.959 37.7161 173.9 37.716Z" fill="#EBEBEB"/>
<path d="M168.164 48.3841C168.096 48.3786 168.032 48.3524 167.979 48.3089C167.927 48.2654 167.889 48.2068 167.872 48.1411C167.854 48.0754 167.857 48.0059 167.88 47.9419C167.904 47.878 167.946 47.8229 168.002 47.7841L173.738 44.4481C173.775 44.4257 173.817 44.411 173.86 44.4049C173.903 44.3988 173.946 44.4015 173.988 44.4127C174.03 44.4239 174.07 44.4434 174.104 44.4701C174.138 44.4968 174.167 44.5301 174.188 44.5681C174.232 44.6446 174.244 44.7353 174.221 44.8206C174.199 44.906 174.144 44.979 174.068 45.0241L168.332 48.3601C168.279 48.3826 168.221 48.3908 168.164 48.3841Z" fill="#EBEBEB"/>
<path d="M250.544 57.504C250.485 57.5029 250.427 57.4863 250.376 57.456L242.846 53.112C242.796 53.0825 242.755 53.0403 242.726 52.9898C242.698 52.9392 242.683 52.8821 242.684 52.824V44.13C242.683 44.072 242.698 44.0149 242.726 43.9643C242.755 43.9137 242.796 43.8716 242.846 43.842L250.376 39.498C250.426 39.4685 250.483 39.4529 250.541 39.4529C250.599 39.4529 250.656 39.4685 250.706 39.498L258.236 43.842C258.287 43.8713 258.329 43.9132 258.358 43.9637C258.388 44.0142 258.403 44.0716 258.404 44.13V52.8C258.403 52.8585 258.388 52.9158 258.358 52.9664C258.329 53.0169 258.287 53.0588 258.236 53.088L250.7 57.456C250.653 57.4853 250.599 57.5019 250.544 57.504ZM243.344 52.632L250.544 56.79L257.744 52.632V44.322L250.544 40.17L243.344 44.322V52.632Z" fill="#EBEBEB"/>
<path d="M258.068 44.4601C258.001 44.4536 257.937 44.4266 257.885 44.3827C257.834 44.3388 257.797 44.2801 257.78 44.2146C257.763 44.1491 257.767 44.08 257.79 44.0166C257.814 43.9532 257.856 43.8985 257.912 43.8601L262.292 41.4601C262.372 41.4179 262.465 41.4091 262.551 41.4355C262.637 41.4619 262.709 41.5215 262.751 41.6011C262.793 41.6806 262.802 41.7737 262.776 41.8598C262.749 41.9458 262.69 42.0179 262.61 42.0601L258.23 44.4601C258.177 44.4718 258.121 44.4718 258.068 44.4601Z" fill="#EBEBEB"/>
<path d="M244.7 52.2C244.612 52.2 244.529 52.1652 244.467 52.1033C244.405 52.0415 244.37 51.9575 244.37 51.87V45.216C244.381 45.1354 244.421 45.0614 244.482 45.0079C244.543 44.9543 244.622 44.9248 244.703 44.9248C244.784 44.9248 244.863 44.9543 244.924 45.0079C244.985 45.0614 245.025 45.1354 245.036 45.216V51.852C245.038 51.8971 245.03 51.9421 245.014 51.9843C244.998 52.0264 244.973 52.0649 244.942 52.0974C244.911 52.1299 244.873 52.1557 244.831 52.1733C244.79 52.191 244.745 52.2 244.7 52.2Z" fill="#EBEBEB"/>
<path d="M256.604 45.186C256.545 45.1872 256.487 45.1727 256.436 45.144L250.7 41.808C250.661 41.786 250.626 41.7564 250.598 41.7209C250.57 41.6854 250.549 41.6448 250.537 41.6014C250.525 41.5579 250.521 41.5125 250.527 41.4676C250.532 41.4228 250.546 41.3794 250.568 41.34C250.59 41.3006 250.62 41.266 250.655 41.238C250.691 41.2101 250.731 41.1894 250.775 41.1771C250.818 41.1648 250.864 41.1613 250.908 41.1666C250.953 41.1719 250.997 41.186 251.036 41.208L256.772 44.544C256.847 44.5901 256.901 44.6632 256.923 44.748C256.945 44.8329 256.934 44.9231 256.892 45C256.866 45.0544 256.825 45.1006 256.774 45.1334C256.723 45.1662 256.664 45.1844 256.604 45.186Z" fill="#EBEBEB"/>
<path d="M250.868 55.86C250.8 55.8557 250.734 55.8302 250.681 55.7872C250.628 55.7441 250.59 55.6856 250.571 55.6196C250.553 55.5537 250.555 55.4837 250.578 55.4193C250.601 55.3548 250.644 55.2992 250.7 55.26L256.436 51.924C256.473 51.9019 256.515 51.8875 256.558 51.8814C256.601 51.8753 256.645 51.8778 256.687 51.8887C256.729 51.8995 256.768 51.9186 256.803 51.9447C256.838 51.9709 256.867 52.0036 256.889 52.041C256.911 52.0784 256.926 52.1198 256.932 52.1629C256.938 52.2059 256.935 52.2497 256.924 52.2917C256.913 52.3338 256.894 52.3733 256.868 52.408C256.842 52.4427 256.809 52.4719 256.772 52.494L251.036 55.8C250.986 55.8343 250.928 55.8549 250.868 55.86Z" fill="#EBEBEB"/>
<path d="M166.38 64.5872L38.6012 80.9788L60.9581 255.261L188.737 238.869L166.38 64.5872Z" fill="#EBEBEB"/>
<path d="M55.3105 255.982L60.9583 255.258L38.6013 80.9761L32.9536 81.7005L55.3105 255.982Z" fill="#DBDBDB"/>
<path d="M166.382 64.5842L38.6027 80.9757L40.8342 98.3712L168.613 81.9796L166.382 64.5842Z" fill="#DBDBDB"/>
<path d="M38.595 80.9755L32.9473 81.7L35.1788 99.0954L40.8265 98.3709L38.595 80.9755Z" fill="#A6A6A6"/>
<path d="M35.757 99.0214L35.4595 99.0596L55.5849 255.946L55.8825 255.908L35.757 99.0214Z" fill="#C7C7C7"/>
<path d="M36.4428 98.9351L36.1453 98.9733L56.2715 255.866L56.569 255.827L36.4428 98.9351Z" fill="#C7C7C7"/>
<path d="M37.1278 98.8427L36.8302 98.8809L56.9556 255.767L57.2532 255.729L37.1278 98.8427Z" fill="#C7C7C7"/>
<path d="M37.9951 98.4418L37.6981 98.4808L58.2605 255.071L58.5575 255.032L37.9951 98.4418Z" fill="#C7C7C7"/>
<path d="M38.6733 98.3538L38.3763 98.3928L58.9395 254.989L59.2365 254.95L38.6733 98.3538Z" fill="#C7C7C7"/>
<path d="M39.1774 98.5778L38.8799 98.616L59.0061 255.508L59.3037 255.47L39.1774 98.5778Z" fill="#C7C7C7"/>
<path d="M39.8625 98.4915L39.5649 98.5297L59.6904 255.416L59.9879 255.378L39.8625 98.4915Z" fill="#C7C7C7"/>
<path d="M40.5482 98.4052L40.2506 98.4434L60.3768 255.336L60.6744 255.298L40.5482 98.4052Z" fill="#C7C7C7"/>
<path d="M63.4296 151.662L109.601 145.599L109.475 144.637L63.3032 150.7L63.4296 151.662Z" fill="#C7C7C7"/>
<path d="M64.2894 156.189L110.548 150.255L110.425 149.291L64.1657 155.225L64.2894 156.189Z" fill="#C7C7C7"/>
<path d="M62.9732 145.981L162.948 133.156L162.824 132.192L62.8496 145.017L62.9732 145.981Z" fill="#C7C7C7"/>
<path d="M61.6691 135.783L161.644 122.958L161.52 121.994L61.5455 134.818L61.6691 135.783Z" fill="#C7C7C7"/>
<path d="M61.0167 130.678L160.991 117.853L160.868 116.889L60.893 129.714L61.0167 130.678Z" fill="#C7C7C7"/>
<path d="M59.7068 120.48L159.682 107.656L159.558 106.692L59.5831 119.516L59.7068 120.48Z" fill="#C7C7C7"/>
<path d="M59.0483 115.376L159.023 102.551L158.899 101.587L58.9246 114.412L59.0483 115.376Z" fill="#C7C7C7"/>
<path d="M64.9352 161.288L111.194 155.354L111.07 154.39L64.8115 160.324L64.9352 161.288Z" fill="#C7C7C7"/>
<path d="M65.5875 166.387L111.846 160.453L111.723 159.489L65.4638 165.423L65.5875 166.387Z" fill="#C7C7C7"/>
<path d="M66.246 171.492L112.505 165.557L112.381 164.593L66.1223 170.527L66.246 171.492Z" fill="#C7C7C7"/>
<path d="M66.8983 176.596L113.157 170.662L113.034 169.698L66.7746 175.632L66.8983 176.596Z" fill="#C7C7C7"/>
<path d="M67.5567 181.701L113.816 175.767L113.692 174.803L67.4331 180.737L67.5567 181.701Z" fill="#C7C7C7"/>
<path d="M68.2083 186.794L114.467 180.859L114.344 179.895L68.0847 185.829L68.2083 186.794Z" fill="#C7C7C7"/>
<path d="M68.8668 191.898L115.126 185.964L115.002 185L68.7431 190.934L68.8668 191.898Z" fill="#C7C7C7"/>
<path d="M69.5191 197.003L115.778 191.069L115.654 190.105L69.3955 196.039L69.5191 197.003Z" fill="#C7C7C7"/>
<path d="M70.8292 207.2L117.088 201.266L116.964 200.302L70.7055 206.236L70.8292 207.2Z" fill="#C7C7C7"/>
<path d="M71.4817 212.305L117.741 206.371L117.617 205.407L71.358 211.341L71.4817 212.305Z" fill="#C7C7C7"/>
<path d="M117.348 144.189L163.607 138.255L163.483 137.291L117.224 143.225L117.348 144.189Z" fill="#C7C7C7"/>
<path d="M118 149.294L164.259 143.36L164.136 142.396L117.877 148.33L118 149.294Z" fill="#C7C7C7"/>
<path d="M118.659 154.398L164.918 148.464L164.794 147.5L118.535 153.434L118.659 154.398Z" fill="#C7C7C7"/>
<path d="M119.311 159.503L165.57 153.569L165.447 152.605L119.188 158.539L119.311 159.503Z" fill="#C7C7C7"/>
<path d="M119.97 164.602L166.229 158.668L166.105 157.703L119.846 163.638L119.97 164.602Z" fill="#C7C7C7"/>
<path d="M121.268 174.806L167.527 168.872L167.403 167.908L121.144 173.842L121.268 174.806Z" fill="#C7C7C7"/>
<path d="M121.926 179.905L168.185 173.97L168.061 173.006L121.802 178.94L121.926 179.905Z" fill="#C7C7C7"/>
<path d="M122.579 185.009L168.838 179.075L168.714 178.111L122.455 184.045L122.579 185.009Z" fill="#C7C7C7"/>
<path d="M123.236 190.108L169.495 184.174L169.371 183.21L123.113 189.144L123.236 190.108Z" fill="#C7C7C7"/>
<path d="M123.889 195.207L170.148 189.272L170.024 188.308L123.765 194.242L123.889 195.207Z" fill="#C7C7C7"/>
<path d="M124.547 200.311L170.806 194.377L170.682 193.413L124.423 199.347L124.547 200.311Z" fill="#C7C7C7"/>
<path d="M125.199 205.416L171.458 199.482L171.335 198.518L125.076 204.452L125.199 205.416Z" fill="#C7C7C7"/>
<path opacity="0.1" d="M55.328 86.4001C55.404 86.9888 55.3036 87.5868 55.0396 88.1184C54.7756 88.65 54.3598 89.0914 53.8449 89.3866C53.3299 89.6819 52.739 89.8177 52.1468 89.777C51.5546 89.7363 50.9879 89.5208 50.5182 89.1578C50.0485 88.7949 49.6971 88.3007 49.5084 87.738C49.3196 87.1752 49.3021 86.5691 49.4579 85.9964C49.6138 85.4236 49.936 84.91 50.3839 84.5204C50.8318 84.1309 51.3852 83.883 51.974 83.8081C52.7623 83.7078 53.5583 83.9243 54.1871 84.4103C54.8159 84.8963 55.2263 85.6119 55.328 86.4001Z" fill="black"/>
<path d="M54.152 86.526C54.1942 86.8773 54.1318 87.2333 53.9728 87.5494C53.8138 87.8655 53.5651 88.1277 53.2579 88.3032C52.9507 88.4788 52.5985 88.5599 52.2455 88.5365C51.8924 88.513 51.5541 88.386 51.2728 88.1713C50.9915 87.9567 50.7797 87.6639 50.6639 87.3295C50.5481 86.9952 50.5335 86.6341 50.6217 86.2914C50.71 85.9488 50.8973 85.6397 51.1602 85.4029C51.4231 85.1661 51.75 85.0121 52.1 84.96C52.338 84.9246 52.5808 84.9373 52.8138 84.9973C53.0469 85.0574 53.2655 85.1635 53.4568 85.3095C53.6481 85.4555 53.8082 85.6384 53.9276 85.8473C54.047 86.0563 54.1233 86.2871 54.152 86.526Z" fill="#263238"/>
<path opacity="0.1" d="M70.844 84.3841C70.92 84.9728 70.8196 85.5708 70.5556 86.1024C70.2916 86.634 69.8758 87.0754 69.3609 87.3706C68.8459 87.6659 68.255 87.8017 67.6628 87.761C67.0706 87.7203 66.5039 87.5048 66.0342 87.1418C65.5645 86.7789 65.2131 86.2847 65.0243 85.722C64.8356 85.1592 64.8181 84.5531 64.9739 83.9804C65.1298 83.4076 65.452 82.894 65.8999 82.5044C66.3478 82.1149 66.9012 81.867 67.49 81.7921C68.2783 81.6918 69.0743 81.9084 69.7031 82.3943C70.3319 82.8803 70.7422 83.5959 70.844 84.3841Z" fill="black"/>
<path d="M69.668 84.534C69.7109 84.8864 69.6487 85.2436 69.4891 85.5608C69.3296 85.8779 69.0798 86.1408 68.7713 86.3163C68.4627 86.4919 68.1091 86.5722 67.755 86.5474C67.4009 86.5225 67.062 86.3934 66.7811 86.1765C66.5001 85.9595 66.2895 85.6643 66.1759 85.328C66.0623 84.9916 66.0506 84.6292 66.1424 84.2863C66.2342 83.9434 66.4254 83.6353 66.6918 83.4007C66.9583 83.1661 67.2882 83.0156 67.64 82.968C67.8762 82.9361 68.1164 82.9514 68.3466 83.013C68.5769 83.0746 68.7926 83.1814 68.9813 83.3271C69.17 83.4728 69.3278 83.6545 69.4457 83.8617C69.5636 84.0689 69.6391 84.2974 69.668 84.534Z" fill="#263238"/>
<path opacity="0.1" d="M86.36 82.398C86.4359 82.9867 86.3356 83.5847 86.0716 84.1163C85.8076 84.6479 85.3918 85.0893 84.8769 85.3846C84.3619 85.6798 83.771 85.8157 83.1788 85.7749C82.5866 85.7342 82.0198 85.5187 81.5502 85.1558C81.0805 84.7928 80.7291 84.2987 80.5403 83.7359C80.3516 83.1731 80.3341 82.567 80.4899 81.9943C80.6458 81.4215 80.968 80.9079 81.4159 80.5184C81.8638 80.1288 82.4171 79.8809 83.006 79.806C83.7943 79.7057 84.5903 79.9223 85.2191 80.4082C85.8479 80.8942 86.2582 81.6098 86.36 82.398Z" fill="black"/>
<path d="M85.19 82.5481C85.2316 82.9001 85.1682 83.2566 85.008 83.5728C84.8478 83.889 84.5977 84.1508 84.2892 84.3255C83.9808 84.5001 83.6276 84.5798 83.274 84.5545C82.9204 84.5292 82.5822 84.4001 82.3017 84.1833C82.0212 83.9665 81.811 83.6718 81.6974 83.336C81.5838 83.0002 81.5718 82.6383 81.6631 82.2958C81.7543 81.9533 81.9447 81.6453 82.2103 81.4105C82.4758 81.1757 82.8048 81.0246 83.156 80.9761C83.3931 80.9433 83.6344 80.9581 83.8657 81.0198C84.097 81.0814 84.3137 81.1885 84.5031 81.3349C84.6925 81.4813 84.8508 81.664 84.9688 81.8723C85.0867 82.0806 85.1619 82.3103 85.19 82.5481Z" fill="#263238"/>
<path opacity="0.1" d="M101.9 80.4001C101.976 80.9888 101.876 81.5868 101.612 82.1184C101.348 82.65 100.932 83.0914 100.417 83.3866C99.902 83.6819 99.311 83.8177 98.7188 83.777C98.1267 83.7363 97.5599 83.5208 97.0902 83.1578C96.6205 82.7949 96.2691 82.3007 96.0804 81.738C95.8916 81.1752 95.8741 80.5691 96.0299 79.9964C96.1858 79.4236 96.5081 78.91 96.9559 78.5204C97.4038 78.1309 97.9572 77.883 98.546 77.8081C99.3344 77.7078 100.13 77.9243 100.759 78.4103C101.388 78.8963 101.798 79.6119 101.9 80.4001Z" fill="black"/>
<path d="M100.754 80.55C100.796 80.902 100.732 81.2585 100.572 81.5747C100.412 81.8909 100.162 82.1528 99.8532 82.3274C99.5447 82.5021 99.1916 82.5818 98.838 82.5565C98.4844 82.5312 98.1461 82.4021 97.8657 82.1853C97.5852 81.9685 97.3749 81.6737 97.2613 81.3379C97.1477 81.0022 97.1358 80.6403 97.227 80.2977C97.3183 79.9552 97.5086 79.6472 97.7742 79.4125C98.0398 79.1777 98.3688 79.0265 98.72 78.978C98.9571 78.9452 99.1984 78.9601 99.4297 79.0217C99.661 79.0833 99.8777 79.1905 100.067 79.3368C100.257 79.4832 100.415 79.6659 100.533 79.8742C100.651 80.0825 100.726 80.3123 100.754 80.55Z" fill="#263238"/>
<path opacity="0.1" d="M117.5 78.402C117.576 78.9907 117.476 79.5887 117.212 80.1203C116.948 80.652 116.532 81.0933 116.017 81.3886C115.502 81.6838 114.911 81.8197 114.319 81.7789C113.727 81.7382 113.16 81.5227 112.69 81.1598C112.221 80.7968 111.869 80.3027 111.68 79.7399C111.492 79.1772 111.474 78.5711 111.63 77.9983C111.786 77.4256 112.108 76.9119 112.556 76.5224C113.004 76.1329 113.557 75.8849 114.146 75.81C114.934 75.7097 115.73 75.9263 116.359 76.4123C116.988 76.8982 117.398 77.6138 117.5 78.402Z" fill="black"/>
<path d="M116.3 78.552C116.343 78.9042 116.281 79.2611 116.121 79.5779C115.962 79.8948 115.712 80.1575 115.404 80.3331C115.096 80.5086 114.743 80.5892 114.389 80.5647C114.035 80.5402 113.696 80.4116 113.415 80.1952C113.134 79.9789 112.923 79.6843 112.809 79.3484C112.695 79.0126 112.682 78.6505 112.773 78.3076C112.864 77.9648 113.054 77.6564 113.32 77.4213C113.586 77.1862 113.915 77.0347 114.266 76.986C114.503 76.9532 114.744 76.9679 114.974 77.0291C115.205 77.0904 115.422 77.197 115.611 77.3427C115.801 77.4885 115.959 77.6705 116.077 77.8781C116.195 78.0858 116.271 78.3148 116.3 78.552Z" fill="#263238"/>
<path opacity="0.1" d="M132.98 76.4161C133.056 77.0047 132.956 77.6027 132.692 78.1344C132.428 78.666 132.012 79.1074 131.497 79.4026C130.982 79.6979 130.391 79.8337 129.799 79.793C129.207 79.7523 128.64 79.5368 128.17 79.1738C127.701 78.8109 127.349 78.3167 127.16 77.754C126.972 77.1912 126.954 76.5851 127.11 76.0123C127.266 75.4396 127.588 74.926 128.036 74.5364C128.484 74.1469 129.037 73.899 129.626 73.8241C130.414 73.7237 131.21 73.9403 131.839 74.4263C132.468 74.9123 132.878 75.6279 132.98 76.4161Z" fill="black"/>
<path d="M131.81 76.566C131.852 76.918 131.788 77.2745 131.628 77.5907C131.468 77.9069 131.218 78.1688 130.909 78.3434C130.601 78.5181 130.248 78.5978 129.894 78.5725C129.54 78.5472 129.202 78.418 128.922 78.2013C128.641 77.9845 128.431 77.6897 128.317 77.3539C128.204 77.0181 128.192 76.6563 128.283 76.3137C128.374 75.9712 128.565 75.6632 128.83 75.4284C129.096 75.1937 129.425 75.0425 129.776 74.994C130.013 74.9612 130.254 74.9761 130.486 75.0377C130.717 75.0993 130.934 75.2064 131.123 75.3528C131.313 75.4992 131.471 75.6819 131.589 75.8902C131.707 76.0985 131.782 76.3283 131.81 76.566Z" fill="#263238"/>
<path opacity="0.1" d="M148.514 74.4001C148.59 74.9888 148.49 75.5868 148.226 76.1184C147.962 76.65 147.546 77.0914 147.031 77.3866C146.516 77.6819 145.925 77.8177 145.333 77.777C144.741 77.7363 144.174 77.5208 143.704 77.1578C143.234 76.7949 142.883 76.3007 142.694 75.738C142.506 75.1752 142.488 74.5691 142.644 73.9963C142.8 73.4236 143.122 72.91 143.57 72.5204C144.018 72.1309 144.571 71.883 145.16 71.8081C145.948 71.7078 146.744 71.9243 147.373 72.4103C148.002 72.8963 148.412 73.6119 148.514 74.4001Z" fill="black"/>
<path d="M147.338 74.574C147.38 74.9263 147.316 75.2831 147.156 75.5995C146.996 75.916 146.745 76.178 146.437 76.3526C146.128 76.5273 145.774 76.6068 145.42 76.5811C145.067 76.5555 144.728 76.4258 144.448 76.2085C144.167 75.9911 143.957 75.6958 143.844 75.3595C143.731 75.0232 143.72 74.661 143.812 74.3184C143.904 73.9758 144.096 73.6681 144.362 73.4339C144.629 73.1996 144.958 73.0494 145.31 73.002C145.547 72.9701 145.787 72.9856 146.018 73.0476C146.249 73.1096 146.465 73.2169 146.653 73.3632C146.842 73.5095 147 73.6919 147.117 73.8998C147.235 74.1076 147.31 74.3368 147.338 74.574Z" fill="#263238"/>
<path opacity="0.1" d="M164.096 72.4261C164.172 73.0148 164.072 73.6128 163.808 74.1444C163.544 74.676 163.128 75.1174 162.613 75.4126C162.098 75.7079 161.507 75.8437 160.915 75.803C160.323 75.7623 159.756 75.5468 159.286 75.1838C158.816 74.8209 158.465 74.3267 158.276 73.764C158.088 73.2012 158.07 72.5951 158.226 72.0223C158.382 71.4496 158.704 70.936 159.152 70.5464C159.6 70.1569 160.153 69.909 160.742 69.8341C161.53 69.7338 162.326 69.9503 162.955 70.4363C163.584 70.9223 163.994 71.6379 164.096 72.4261Z" fill="black"/>
<path d="M162.92 72.6C162.962 72.9523 162.898 73.3091 162.738 73.6255C162.578 73.942 162.327 74.204 162.019 74.3787C161.71 74.5533 161.356 74.6328 161.002 74.6071C160.649 74.5815 160.31 74.4518 160.03 74.2345C159.749 74.0171 159.539 73.7218 159.426 73.3855C159.313 73.0492 159.302 72.687 159.394 72.3444C159.486 72.0018 159.678 71.6941 159.944 71.4599C160.211 71.2256 160.54 71.0754 160.892 71.028C161.129 70.9961 161.369 71.0116 161.6 71.0736C161.831 71.1356 162.047 71.2429 162.235 71.3892C162.424 71.5355 162.582 71.7179 162.699 71.9258C162.817 72.1336 162.892 72.3628 162.92 72.6Z" fill="#263238"/>
<path d="M53.0059 80.286C53.1979 81.768 53.6539 86.622 53.6539 86.622C53.8699 88.302 51.2539 88.632 51.0559 86.958C50.8579 85.284 50.4559 82.308 50.1079 79.584C49.6279 75.864 47.8399 74.73 46.2259 74.94C44.2159 75.198 43.3339 77.772 43.6579 80.34L41.0479 80.676C40.3039 74.886 42.7819 72.276 45.6319 71.934C49.9639 71.358 52.2019 74.01 53.0059 80.286Z" fill="#A6A6A6"/>
<path d="M68.54 78.2941C68.732 79.7761 69.188 84.6301 69.188 84.6301C69.404 86.3101 66.788 86.6401 66.59 84.9661C66.392 83.2921 65.99 80.3161 65.642 77.5861C65.162 73.8721 63.374 72.7381 61.76 72.9481C59.75 73.2061 58.868 75.7801 59.192 78.3481L56.582 78.6841C55.838 72.8941 58.322 70.2841 61.166 69.9361C65.498 69.3661 67.736 72.0001 68.54 78.2941Z" fill="#A6A6A6"/>
<path d="M84.0739 76.296C84.2659 77.784 84.7219 82.638 84.7219 82.638C84.9379 84.318 82.3219 84.642 82.1239 82.974C81.9259 81.306 81.5239 78.324 81.1759 75.594C80.7019 71.88 78.9079 70.746 77.2939 70.956C75.2839 71.214 74.4019 73.788 74.7259 76.356L72.1159 76.692C71.3719 70.902 73.8559 68.292 76.6999 67.944C81.0379 67.374 83.2999 70.02 84.0739 76.296Z" fill="#A6A6A6"/>
<path d="M99.608 74.304C99.8 75.792 100.256 80.646 100.256 80.646C100.472 82.326 97.856 82.65 97.658 80.976C97.46 79.302 97.058 76.332 96.71 73.602C96.236 69.888 94.442 68.754 92.828 68.958C90.818 69.216 89.936 71.79 90.266 74.358L87.65 74.694C86.906 68.898 89.39 66.294 92.234 65.946C96.572 65.4 98.804 68.028 99.608 74.304Z" fill="#A6A6A6"/>
<path d="M115.148 72.312C115.334 73.8 115.79 78.654 115.79 78.654C116.006 80.334 113.39 80.658 113.192 78.984C112.994 77.31 112.592 74.34 112.244 71.61C111.77 67.896 109.976 66.762 108.362 66.966C106.352 67.224 105.47 69.798 105.8 72.366L103.184 72.696C102.44 66.906 104.924 64.296 107.768 63.954C112.1 63.384 114.338 66.036 115.148 72.312Z" fill="#A6A6A6"/>
<path d="M130.7 70.32C130.886 71.808 131.342 76.662 131.342 76.662C131.558 78.336 128.942 78.666 128.744 76.992C128.546 75.318 128.144 72.342 127.796 69.618C127.322 65.904 125.528 64.77 123.92 64.974C121.904 65.232 121.022 67.806 121.352 70.374L118.736 70.71C117.992 64.92 120.476 62.31 123.32 61.968C127.64 61.392 129.872 64.044 130.7 70.32Z" fill="#A6A6A6"/>
<path d="M146.216 68.328C146.402 69.81 146.858 74.664 146.858 74.664C147.074 76.344 144.458 76.674 144.26 75C144.062 73.326 143.66 70.35 143.312 67.626C142.838 63.906 141.044 62.778 139.436 62.982C137.426 63.24 136.538 65.814 136.868 68.382L134.252 68.718C133.508 62.928 135.992 60.318 138.836 59.976C143.174 59.4 145.412 62.052 146.216 68.328Z" fill="#A6A6A6"/>
<path d="M161.75 66.336C161.942 67.818 162.392 72.672 162.392 72.672C162.608 74.352 159.992 74.682 159.794 73.008C159.596 71.334 159.194 68.358 158.846 65.634C158.372 61.914 156.578 60.78 154.97 60.99C152.96 61.248 152.072 63.822 152.402 66.39L149.786 66.726C149.042 60.936 151.526 58.326 154.37 57.984C158.708 57.408 160.946 60.06 161.75 66.336Z" fill="#A6A6A6"/>
<path d="M151.55 247.578H44.876V258.87H151.55V247.578Z" fill="#A3BF44"/>
<path opacity="0.6" d="M151.55 247.578H44.876V258.87H151.55V247.578Z" fill="white"/>
<path d="M131.432 258.87H141.854V247.578H131.432V258.87Z" fill="#A3BF44"/>
<path d="M123.212 258.87H127.562V247.578H123.212V258.87Z" fill="#A3BF44"/>
<path d="M54.374 258.87H64.796V247.578H54.374V258.87Z" fill="#A3BF44"/>
<path d="M156.458 275.304H46.7419V283.314H156.458V275.304Z" fill="#455A64"/>
<path d="M75.68 275.304H71.204V283.314H75.68V275.304Z" fill="#A3BF44"/>
<path d="M68.252 275.304H63.776V283.314H68.252V275.304Z" fill="#A3BF44"/>
<path d="M145.52 275.304H141.044V283.314H145.52V275.304Z" fill="#A3BF44"/>
<path d="M138.092 275.304H133.616V283.314H138.092V275.304Z" fill="#A3BF44"/>
<path d="M115.958 235.626H49.5499V247.584H115.958V235.626Z" fill="#455A64"/>
<path d="M155.402 235.626H115.88V247.584H155.402V235.626Z" fill="#37474F"/>
<path d="M114.488 236.868H49.5499V246.342H114.488V236.868Z" fill="white"/>
<path d="M53.75 244.392C58.814 244.46 63.876 244.508 68.936 244.536L84.122 244.578L99.302 244.536C104.366 244.512 109.428 244.464 114.488 244.392C109.424 244.324 104.362 244.278 99.302 244.254L84.122 244.212L68.936 244.254C63.872 244.278 58.81 244.324 53.75 244.392Z" fill="#DBDBDB"/>
<path d="M53.75 242.538C58.814 242.602 63.876 242.648 68.936 242.676L84.122 242.718L99.302 242.676C104.366 242.652 109.428 242.606 114.488 242.538C109.424 242.466 104.362 242.418 99.302 242.394L84.122 242.352L68.936 242.394C63.872 242.398 58.81 242.446 53.75 242.538Z" fill="#DBDBDB"/>
<path d="M53.75 240.678C58.814 240.746 63.876 240.792 68.936 240.816L84.122 240.858L99.302 240.816C104.366 240.792 109.428 240.746 114.488 240.678C109.424 240.606 104.362 240.558 99.302 240.534L84.122 240.492L68.936 240.534C63.872 240.578 58.81 240.626 53.75 240.678Z" fill="#DBDBDB"/>
<path d="M53.75 238.8C58.814 238.868 63.876 238.914 68.936 238.938L84.122 238.98L99.302 238.938C104.366 238.914 109.428 238.868 114.488 238.8C109.424 238.736 104.362 238.688 99.302 238.656L84.122 238.614L68.936 238.662C63.872 238.698 58.81 238.744 53.75 238.8Z" fill="#DBDBDB"/>
<path d="M109.244 256.812L104.72 252.036L100.196 256.812V244.434L101.162 242.538H110.21L109.244 244.434V256.812Z" fill="#A3BF44"/>
<path d="M107.522 275.304H171.458V258.87H107.522V275.304Z" fill="#37474F"/>
<path d="M36.704 275.304H107.516V258.87H36.704V275.304Z" fill="#263238"/>
<path d="M109.466 273.6H171.458V260.58H109.466V273.6Z" fill="white"/>
<path d="M167.444 263.256C162.612 263.188 157.78 263.142 152.948 263.118L138.458 263.076L123.962 263.118C119.13 263.142 114.298 263.188 109.466 263.256C114.294 263.324 119.126 263.37 123.962 263.394L138.458 263.436L152.948 263.394C157.784 263.37 162.616 263.324 167.444 263.256Z" fill="#DBDBDB"/>
<path d="M167.444 265.8C162.612 265.736 157.78 265.688 152.948 265.656L138.458 265.614L123.962 265.656C119.13 265.68 114.298 265.728 109.466 265.8C114.294 265.868 119.126 265.914 123.962 265.938L138.458 265.98L152.948 265.938C157.784 265.922 162.616 265.876 167.444 265.8Z" fill="#DBDBDB"/>
<path d="M167.444 268.368C162.612 268.296 157.78 268.248 152.948 268.224L138.458 268.2L123.962 268.242C119.13 268.266 114.298 268.314 109.466 268.386C114.294 268.454 119.126 268.5 123.962 268.524L138.458 268.566L152.948 268.524C157.784 268.488 162.616 268.436 167.444 268.368Z" fill="#DBDBDB"/>
<path d="M167.444 270.918C162.612 270.854 157.78 270.808 152.948 270.78L138.458 270.738L123.962 270.78C119.13 270.804 114.298 270.85 109.466 270.918C114.294 270.99 119.126 271.038 123.962 271.062L138.458 271.104L152.948 271.062C157.784 271.038 162.616 270.99 167.444 270.918Z" fill="#DBDBDB"/>
<path d="M74.948 235.626H135.512V223.146H74.948V235.626Z" fill="#A3BF44"/>
<path d="M40.424 235.626H74.948V223.146H40.424V235.626Z" fill="#A3BF44"/>
<path opacity="0.2" d="M40.424 235.626H73.406V223.146H40.424V235.626Z" fill="black"/>
<path d="M74.948 234.33H135.512V224.436H74.948V234.33Z" fill="white"/>
<path d="M131.588 226.476C126.872 226.404 122.152 226.356 117.428 226.332L103.268 226.284L89.108 226.332C84.392 226.356 79.672 226.404 74.948 226.476C79.668 226.548 84.388 226.596 89.108 226.62L103.268 226.668L117.428 226.62C122.152 226.596 126.872 226.548 131.588 226.476Z" fill="#DBDBDB"/>
<path d="M131.588 228.414C126.872 228.346 122.152 228.298 117.428 228.27L103.268 228.228L89.108 228.27C84.392 228.294 79.672 228.342 74.948 228.414C79.668 228.486 84.388 228.536 89.108 228.564L103.268 228.606L117.428 228.564C122.152 228.536 126.872 228.486 131.588 228.414Z" fill="#DBDBDB"/>
<path d="M131.588 230.358C126.872 230.286 122.152 230.236 117.428 230.208L103.268 230.166L89.108 230.208C84.392 230.236 79.672 230.286 74.948 230.358C79.668 230.43 84.388 230.478 89.108 230.502L103.268 230.55L117.428 230.502C122.152 230.478 126.872 230.43 131.588 230.358Z" fill="#DBDBDB"/>
<path d="M131.588 232.296C126.872 232.228 122.152 232.18 117.428 232.152L103.268 232.11L89.108 232.152C84.392 232.176 79.672 232.224 74.948 232.296C79.668 232.368 84.388 232.418 89.108 232.446L103.268 232.488L117.428 232.446C122.152 232.418 126.872 232.368 131.588 232.296Z" fill="#DBDBDB"/>
<path d="M85.682 239.748L88.61 236.658L91.538 239.748V231.744L90.914 230.514H85.058L85.682 231.744V239.748Z" fill="#455A64"/>
<path d="M217.7 58.5841V207.384H136.532V207.66C136.534 213.145 134.389 218.414 130.556 222.338C126.724 226.262 121.508 228.532 116.024 228.66H115.298C114.584 228.665 113.871 228.627 113.162 228.546L109.25 227.742C108.28 227.431 107.333 227.05 106.418 226.602C105.961 226.398 105.516 226.168 105.086 225.912C104.852 225.792 104.63 225.651 104.42 225.492C103.809 225.135 103.226 224.734 102.674 224.292C102.577 224.225 102.484 224.151 102.398 224.07C101.972 223.768 101.571 223.433 101.198 223.068C101.006 222.9 100.814 222.708 100.598 222.516C98.1792 220.134 96.395 217.184 95.4081 213.936C95.3883 213.869 95.3601 213.804 95.3241 213.744C95.1861 213.246 95.0481 212.718 94.9401 212.19C94.7703 211.525 94.6579 210.846 94.6041 210.162C94.5501 209.856 94.5501 209.562 94.5201 209.25C94.5085 209.148 94.5085 209.046 94.5201 208.944C94.5201 208.554 94.4361 208.194 94.4361 207.804V58.8001C94.4361 52.9141 90.3261 37.7581 72.1461 37.7581H196.856C199.593 37.7557 202.303 38.2926 204.831 39.3382C207.36 40.3837 209.658 41.9174 211.594 43.8515C213.53 45.7856 215.065 48.0822 216.113 50.6101C217.161 53.138 217.7 55.8476 217.7 58.5841Z" fill="white"/>
<path d="M217.7 58.584C217.742 58.674 217.808 207.426 217.838 207.522C217.868 207.618 136.592 207.558 136.562 207.6L136.778 207.384C136.78 209.638 136.452 211.879 135.806 214.038C134.779 217.271 132.998 220.214 130.611 222.624C128.223 225.034 125.296 226.842 122.072 227.898C119.188 228.8 116.151 229.109 113.144 228.804L109.202 228C108.093 227.658 107.016 227.216 105.986 226.68C102.627 225.032 99.7691 222.517 97.7079 219.395C95.6467 216.273 94.4571 212.656 94.2621 208.92C94.1241 207.504 94.1901 204.966 94.1781 203.52C94.1781 199.92 94.1781 189.948 94.1781 186.204C94.2081 148.278 94.2621 97.194 94.2921 59.226C94.2921 51.636 90.1401 43.902 83.2821 40.392C79.8295 38.7097 76.0282 37.8669 72.1881 37.932V37.62C102.446 37.692 168.038 37.62 197.588 37.77C208.646 38.04 217.754 47.52 217.682 58.584H217.7ZM217.7 58.584C217.748 47.562 208.664 38.064 197.6 37.83C168.344 37.752 102.2 37.926 72.2001 37.914V37.62C76.0907 37.5444 79.9439 38.3915 83.4441 40.092C90.4161 43.644 94.6221 51.492 94.6701 59.208C94.7121 97.194 94.7541 148.242 94.7841 186.186C94.7841 189.936 94.7841 199.866 94.7841 203.502C94.8201 204.918 94.7001 207.492 94.8621 208.902C94.9171 209.91 95.0434 210.912 95.2401 211.902C95.8726 214.959 97.1883 217.832 99.0887 220.309C100.989 222.785 103.425 224.799 106.214 226.2C107.205 226.719 108.239 227.151 109.304 227.49L113.216 228.3C116.145 228.623 119.109 228.32 121.913 227.412C124.716 226.504 127.295 225.012 129.478 223.033C131.662 221.054 133.401 218.634 134.579 215.934C135.758 213.233 136.35 210.313 136.316 207.366V207.15H136.532L217.67 207.228C217.466 208.128 217.67 58.356 217.67 58.566L217.7 58.584Z" fill="#263238"/>
<path d="M160.406 50.34L203.96 50.34V49.146L160.406 49.146V50.34Z" fill="#DBDBDB"/>
<path d="M109.826 81.9H153.38V80.706H109.826V81.9Z" fill="#DBDBDB"/>
<path d="M109.826 88.218H153.38V87.024H109.826V88.218Z" fill="#DBDBDB"/>
<path d="M109.826 94.53H153.38V93.336H109.826V94.53Z" fill="#DBDBDB"/>
<path d="M109.826 100.842H153.38V99.648H109.826V100.842Z" fill="#DBDBDB"/>
<path d="M109.826 107.154H153.38V105.96H109.826V107.154Z" fill="#DBDBDB"/>
<path d="M109.826 113.466H153.38V112.272H109.826V113.466Z" fill="#DBDBDB"/>
<path d="M109.826 119.772H153.38V118.578H109.826V119.772Z" fill="#DBDBDB"/>
<path d="M109.826 126.084H153.38V124.89H109.826V126.084Z" fill="#DBDBDB"/>
<path d="M109.826 132.396H153.38V131.202H109.826V132.396Z" fill="#DBDBDB"/>
<path d="M109.826 138.714H153.38V137.52H109.826V138.714Z" fill="#DBDBDB"/>
<path d="M109.826 151.338H153.38V150.144H109.826V151.338Z" fill="#DBDBDB"/>
<path d="M109.826 157.65H153.38V156.456H109.826V157.65Z" fill="#DBDBDB"/>
<path d="M109.826 163.962H153.38V162.768H109.826V163.962Z" fill="#DBDBDB"/>
<path d="M109.826 170.274H153.38V169.08H109.826V170.274Z" fill="#DBDBDB"/>
<path d="M109.826 182.898H153.38V181.704H109.826V182.898Z" fill="#DBDBDB"/>
<path d="M109.826 189.21H153.38V188.016H109.826V189.21Z" fill="#DBDBDB"/>
<path d="M109.826 195.528H153.38V194.334H109.826V195.528Z" fill="#DBDBDB"/>
<path d="M160.406 56.652L203.96 56.652V55.458L160.406 55.458V56.652Z" fill="#DBDBDB"/>
<path d="M160.406 62.964L203.96 62.964V61.77L160.406 61.77V62.964Z" fill="#DBDBDB"/>
<path d="M160.406 69.276H203.96V68.082H160.406V69.276Z" fill="#DBDBDB"/>
<path d="M160.406 75.588H203.96V74.394H160.406V75.588Z" fill="#DBDBDB"/>
<path d="M160.406 81.9H203.96V80.706H160.406V81.9Z" fill="#DBDBDB"/>
<path d="M160.406 88.218H203.96V87.024H160.406V88.218Z" fill="#DBDBDB"/>
<path d="M160.406 94.53H203.96V93.336H160.406V94.53Z" fill="#DBDBDB"/>
<path d="M160.406 100.842H203.96V99.648H160.406V100.842Z" fill="#DBDBDB"/>
<path d="M160.406 107.154H203.96V105.96H160.406V107.154Z" fill="#DBDBDB"/>
<path d="M160.406 119.772H203.96V118.578H160.406V119.772Z" fill="#DBDBDB"/>
<path d="M160.406 126.084H203.96V124.89H160.406V126.084Z" fill="#DBDBDB"/>
<path d="M160.406 132.396H203.96V131.202H160.406V132.396Z" fill="#DBDBDB"/>
<path d="M160.406 138.714H203.96V137.52H160.406V138.714Z" fill="#DBDBDB"/>
<path d="M160.406 145.026H203.96V143.832H160.406V145.026Z" fill="#DBDBDB"/>
<path d="M160.406 151.338H203.96V150.144H160.406V151.338Z" fill="#DBDBDB"/>
<path d="M160.406 157.65H203.96V156.456H160.406V157.65Z" fill="#DBDBDB"/>
<path d="M160.406 163.962H203.96V162.768H160.406V163.962Z" fill="#DBDBDB"/>
<path d="M201.11 176.016H191.282V176.928H201.11V176.016Z" fill="#EBEBEB"/>
<path d="M204.038 177.924H191.282V178.836H204.038V177.924Z" fill="#EBEBEB"/>
<path d="M198.098 179.832H191.282V180.744H198.098V179.832Z" fill="#EBEBEB"/>
<path d="M202.304 183.402H191.282V184.314H202.304V183.402Z" fill="#EBEBEB"/>
<path d="M200.474 185.31H191.282V186.222H200.474V185.31Z" fill="#EBEBEB"/>
<path d="M204.038 187.224H191.282V188.136H204.038V187.224Z" fill="#EBEBEB"/>
<path d="M202.304 190.788H191.282V191.7H202.304V190.788Z" fill="#EBEBEB"/>
<path d="M200.474 192.702H191.282V193.614H200.474V192.702Z" fill="#EBEBEB"/>
<path d="M204.038 194.61H191.282V195.522H204.038V194.61Z" fill="#EBEBEB"/>
<path d="M73.7001 37.764C79.2734 37.772 84.6157 39.992 88.5532 43.9363C92.4908 47.8806 94.7017 53.2267 94.7001 58.8V67.86H52.6641V58.8C52.6633 56.0373 53.2068 53.3015 54.2637 50.749C55.3206 48.1964 56.8701 45.8771 58.8236 43.9236C60.7771 41.9701 63.0964 40.4206 65.649 39.3637C68.2016 38.3068 70.9374 37.7633 73.7001 37.764Z" fill="#DBDBDB"/>
<path d="M248.336 207.384V207.66C248.338 213.145 246.193 218.414 242.36 222.338C238.528 226.262 233.312 228.532 227.828 228.66H116.024C121.508 228.532 126.724 226.262 130.556 222.338C134.389 218.414 136.534 213.145 136.532 207.66V207.384H248.336Z" fill="#DBDBDB"/>
<path d="M33.23 283.32C108.362 282.948 192.638 282.948 267.77 283.32C192.638 283.686 108.362 283.686 33.23 283.32Z" fill="#263238"/>
</svg>
