<svg width="271" height="255" viewBox="0 0 271 255" fill="none" xmlns="http://www.w3.org/2000/svg">
<path d="M149.734 207.25L84.262 184.786L1.078 200.968L69.376 225.1L149.734 207.25Z" fill="#DBDBDB"/>
<path d="M149.734 207.25L84.244 184.846C84.418 184.846 1.06 201.118 1.102 201.118V200.83L69.382 225.022C69.172 225.082 149.782 207.22 149.71 207.25H149.734ZM149.734 207.25L69.37 225.178C69.37 225.178 1.042 201.106 1.024 201.112L0.507996 200.926L1.048 200.824C1.048 200.824 84.262 184.72 84.268 184.714C84.274 184.708 149.71 207.25 149.734 207.25Z" fill="#DBDBDB"/>
<path d="M71.98 218.836C67.954 217.108 63.802 215.5 59.632 213.91C55.462 212.32 51.232 210.79 46.99 209.272C42.748 207.754 38.44 206.272 34.084 204.88L27.538 202.774C25.3 202.114 23.128 201.4 20.872 200.8C22.87 201.676 24.946 202.48 26.986 203.32L33.214 205.72C37.372 207.322 41.614 208.846 45.862 210.358C50.11 211.87 54.406 213.358 58.768 214.75C63.13 216.142 67.486 217.552 71.98 218.836Z" fill="#C7C7C7"/>
<path d="M61.162 209.704C56.3812 207.489 51.4909 205.518 46.51 203.8C41.422 202 36.25 200.326 30.736 198.964C35.5142 201.182 40.4025 203.155 45.382 204.874C50.5 206.644 55.648 208.336 61.162 209.704Z" fill="#C7C7C7"/>
<path d="M91.702 215.2C87.676 213.472 83.53 211.864 79.36 210.274C75.19 208.684 70.96 207.154 66.712 205.636C62.464 204.118 58.168 202.636 53.806 201.244L47.26 199.12C45.04 198.46 42.856 197.758 40.6 197.128C42.598 198.004 44.674 198.808 46.708 199.648L52.942 202.048C57.1 203.65 61.342 205.168 65.59 206.68C69.838 208.192 74.134 209.68 78.496 211.072C82.858 212.464 87.214 213.898 91.702 215.2Z" fill="#C7C7C7"/>
<path d="M94.228 210.76C87.376 207.76 80.182 205.09 72.904 202.492C65.626 199.894 58.198 197.452 50.458 195.292C57.31 198.292 64.504 200.968 71.782 203.56C79.06 206.152 86.5 208.6 94.228 210.76Z" fill="#C7C7C7"/>
<path d="M85.666 202.432C81.7383 200.51 77.6945 198.834 73.558 197.416C69.2236 195.856 64.8046 194.542 60.322 193.48C64.2509 195.398 68.2946 197.071 72.43 198.49C76.7654 200.049 81.1842 201.365 85.666 202.432Z" fill="#C7C7C7"/>
<path d="M270.334 217.558L179.488 193.552L91.822 229.312L182.212 254.17L270.334 217.558Z" fill="#EBEBEB"/>
<path d="M270.334 217.558C270.334 217.558 179.314 193.6 179.5 193.6L91.9 229.45V229.168C91.9 229.168 182.434 254.122 182.224 254.104L270.37 217.558H270.334ZM270.334 217.558C270.334 217.558 182.23 254.242 182.218 254.254C182.206 254.266 91.798 229.444 91.786 229.456L91.36 229.336L91.768 229.174C91.768 229.174 179.5 193.48 179.5 193.474C179.5 193.468 270.322 217.564 270.352 217.558H270.334Z" fill="#DBDBDB"/>
<path d="M183.49 246.886C177.574 244.972 171.574 243.19 165.568 241.426C159.562 239.662 153.508 237.964 147.454 236.278C141.4 234.592 135.304 232.972 129.172 231.412L119.974 229.078C116.884 228.34 113.812 227.566 110.698 226.87C113.65 227.836 116.65 228.73 119.626 229.66L128.626 232.33C134.626 234.13 140.686 235.792 146.74 237.472C152.794 239.152 158.896 240.784 165.022 242.338C171.148 243.892 177.28 245.464 183.49 246.886Z" fill="#DBDBDB"/>
<path d="M160.204 234.154C153.73 231.826 147.034 229.858 140.29 227.98C133.546 226.102 126.7 224.38 119.656 223.006C126.13 225.334 132.856 227.302 139.57 229.174C146.284 231.046 153.166 232.768 160.204 234.154Z" fill="#DBDBDB"/>
<path d="M192.448 236.698C187.276 234.988 182.026 233.41 176.764 231.85C171.502 230.29 166.198 228.802 160.888 227.32C155.578 225.838 150.232 224.422 144.844 223.072L136.768 221.044C134.044 220.408 131.368 219.736 128.608 219.136C131.188 220.006 133.816 220.798 136.408 221.626L144.286 223.99C149.542 225.562 154.852 227.038 160.162 228.514C165.472 229.99 170.818 231.412 176.206 232.762C181.594 234.112 186.976 235.48 192.448 236.698Z" fill="#DBDBDB"/>
<path d="M196.672 231.532C191.872 229.93 187.042 228.46 182.17 227.014C177.298 225.568 172.396 224.176 167.476 222.814C162.556 221.452 157.612 220.132 152.62 218.884L145.132 217C142.606 216.4 140.11 215.8 137.566 215.26C139.966 216.076 142.366 216.814 144.766 217.588L152.056 219.784C156.916 221.248 161.83 222.622 166.75 223.984C171.67 225.346 176.62 226.66 181.612 227.908C186.604 229.156 191.602 230.422 196.672 231.532Z" fill="#DBDBDB"/>
<path d="M219.31 231.43C213.394 229.516 207.394 227.734 201.388 225.97C195.382 224.206 189.328 222.508 183.274 220.822C177.22 219.136 171.124 217.516 164.992 215.956L155.794 213.622C152.704 212.884 149.632 212.11 146.518 211.408C149.47 212.38 152.47 213.274 155.44 214.204L164.44 216.874C170.44 218.674 176.5 220.336 182.554 222.016C188.608 223.696 194.704 225.322 200.836 226.882C206.968 228.442 213.1 230.008 219.31 231.43Z" fill="#DBDBDB"/>
<path d="M220.06 225.31C214.828 223.582 209.512 221.986 204.19 220.414C198.868 218.842 193.498 217.33 188.128 215.83C182.758 214.33 177.328 212.902 171.898 211.528L163.726 209.476C160.972 208.834 158.248 208.15 155.476 207.544C158.086 208.42 160.738 209.218 163.372 210.058L171.346 212.458C176.662 214.048 182.032 215.542 187.408 217.036C192.784 218.53 198.208 219.97 203.638 221.338C209.068 222.706 214.528 224.08 220.06 225.31Z" fill="#DBDBDB"/>
<path d="M237.22 223.702C231.298 221.788 225.304 220.006 219.298 218.242C213.292 216.478 207.238 214.78 201.184 213.094C195.13 211.408 189.034 209.788 182.902 208.228L173.704 205.894C170.608 205.156 167.542 204.382 164.428 203.68C167.38 204.652 170.38 205.546 173.35 206.476L182.35 209.146C188.35 210.946 194.41 212.608 200.464 214.288C206.518 215.968 212.614 217.594 218.746 219.154C224.878 220.714 231.004 222.28 237.22 223.702Z" fill="#DBDBDB"/>
<path d="M216.406 211.654C209.518 209.212 202.414 207.13 195.25 205.138C188.086 203.146 180.85 201.316 173.386 199.816C180.268 202.264 187.378 204.346 194.536 206.332C201.694 208.318 208.954 210.148 216.406 211.654Z" fill="#DBDBDB"/>
<path d="M187.174 128.62H11.938V151.57H187.174V128.62Z" fill="#C7C7C7"/>
<path d="M46.708 128.62H30.352V151.57H46.708V128.62Z" fill="#DBDBDB"/>
<path d="M73.744 128.62H67.672V151.57H73.744V128.62Z" fill="#DBDBDB"/>
<path d="M167.644 128.62H151.288V151.57H167.644V128.62Z" fill="#DBDBDB"/>
<path d="M257.09 160.469L180.716 0.921143L160.015 10.8303L236.39 170.378L257.09 160.469Z" fill="#C7C7C7"/>
<path d="M195.87 32.5799L188.74 17.6864L168.04 27.5955L175.169 42.4891L195.87 32.5799Z" fill="#DBDBDB"/>
<path d="M207.651 57.1904L205.006 51.6648L184.306 61.5739L186.951 67.0995L207.651 57.1904Z" fill="#DBDBDB"/>
<path d="M248.574 142.698L241.444 127.804L220.744 137.713L227.873 152.607L248.574 142.698Z" fill="#DBDBDB"/>
<path d="M173.134 113.782H23.548V128.62H173.134V113.782Z" fill="#DBDBDB"/>
<path d="M95.146 116.812H37.612V125.716H95.146V116.812Z" fill="#EBEBEB"/>
<path d="M172.792 57.0039H38.482V88.0959H172.792V57.0039Z" fill="#C7C7C7"/>
<path d="M158.554 57.0039H146.038V88.0959H158.554V57.0039Z" fill="#DBDBDB"/>
<path d="M137.818 57.0039H132.964V88.0959H137.818V57.0039Z" fill="#DBDBDB"/>
<path d="M191.38 151.564H17.974V170.38H191.38V151.564Z" fill="#A3BF44"/>
<path d="M172.996 151.564H156.832V170.38H172.996V151.564Z" fill="#EBEBEB"/>
<path d="M69.88 151.564H53.716V170.38H69.88V151.564Z" fill="#EBEBEB"/>
<path d="M87.214 151.564H80.95V170.38H87.214V151.564Z" fill="#EBEBEB"/>
<path d="M108.178 88.0959H12.172V113.782H108.178V88.0959Z" fill="#A3BF44"/>
<path d="M196.924 88.0959H108.178V113.782H196.924V88.0959Z" fill="#A3BF44"/>
<path d="M108.178 90.76H12.172V111.112H108.178V90.76Z" fill="white"/>
<path d="M108.178 111.118C108.046 110.986 11.896 111.502 12.04 111.118V90.76V90.61H12.19C12.19 90.61 108.226 90.712 108.244 90.706C108.262 90.7 108.184 111.064 108.196 111.106L108.178 111.118ZM108.178 111.118L108.1 90.76C108.394 90.91 12.1 90.862 12.148 90.91L12.298 90.76V111.118C11.434 110.764 108.376 111.226 108.172 111.118H108.178Z" fill="#263238"/>
<path d="M20.5 94.948C30.556 94.808 40.616 94.71 50.68 94.654L64.324 94.564L94.504 94.654C104.56 94.702 98.104 94.81 108.154 94.948C98.092 95.092 104.554 95.194 94.504 95.248L64.324 95.338L50.68 95.248C40.632 95.196 30.572 95.096 20.5 94.948Z" fill="#DBDBDB"/>
<path d="M20.5 98.944C30.556 98.8 40.616 98.7 50.68 98.644L64.324 98.554L94.504 98.644C104.56 98.698 98.104 98.8 108.154 98.944C98.092 99.088 104.554 99.19 94.504 99.244L64.324 99.328L50.68 99.238C40.632 99.19 30.572 99.092 20.5 98.944Z" fill="#DBDBDB"/>
<path d="M20.5 102.934C30.556 102.798 40.616 102.7 50.68 102.64L64.324 102.55L94.504 102.64C104.56 102.688 98.104 102.796 108.154 102.934C98.092 103.078 104.554 103.18 94.504 103.234L64.324 103.324L50.68 103.234C40.632 103.182 30.572 103.082 20.5 102.934Z" fill="#DBDBDB"/>
<path d="M20.5 106.93C30.556 106.786 40.616 106.688 50.68 106.636L64.324 106.54L94.504 106.63C104.56 106.684 98.104 106.786 108.154 106.93C98.092 107.074 104.554 107.176 94.504 107.23L64.324 107.314L50.704 107.2C40.64 107.168 30.572 107.078 20.5 106.93Z" fill="#DBDBDB"/>
<path d="M140.332 88.0959H127.84V113.782H140.332V88.0959Z" fill="#EBEBEB"/>
<path d="M192.334 88.0959H183.934V113.782H192.334V88.0959Z" fill="#EBEBEB"/>
<path d="M79.18 57.028L164.32 57.028V29.23L79.18 29.23V57.028Z" fill="#DBDBDB"/>
<path d="M14.536 57.028L79.18 57.028V29.23L14.536 29.23V57.028Z" fill="#DBDBDB"/>
<path d="M79.18 54.142L164.32 54.142V32.116L79.18 32.116V54.142Z" fill="white"/>
<path d="M79.18 32.116L164.446 31.99C164.446 32.08 164.446 54.034 164.446 54.142V54.292H164.296C164.296 54.292 79.096 54.196 79.096 54.202C79.096 54.208 79.174 32.176 79.156 32.116H79.18ZM79.18 32.116L79.24 54.142C78.874 53.974 164.398 54.052 164.32 53.992L164.17 54.142C164.23 54.238 164.002 31.516 164.32 32.248L79.18 32.116Z" fill="#263238"/>
<path d="M158.812 49.5999C152.176 49.7119 145.54 49.7899 138.904 49.8339L118.996 49.9059L99.1 49.8459C92.464 49.8059 85.828 49.7279 79.192 49.6119C85.828 49.4999 92.464 49.4219 99.1 49.3779L119.008 49.3059L138.916 49.3779C145.544 49.4219 152.176 49.4959 158.812 49.5999Z" fill="#DBDBDB"/>
<path d="M158.812 45.292C152.176 45.4 145.54 45.478 138.904 45.526L118.996 45.598L99.1 45.526C92.464 45.486 85.828 45.408 79.192 45.292C85.828 45.18 92.464 45.102 99.1 45.058L119.008 44.986L138.916 45.058C145.544 45.102 152.176 45.18 158.812 45.292Z" fill="#DBDBDB"/>
<path d="M158.812 40.9719C152.176 41.0799 145.54 41.1559 138.904 41.1999L118.996 41.2719L99.1 41.1999C92.464 41.1559 85.828 41.0779 79.192 40.9659C85.828 40.8539 92.464 40.7739 99.1 40.7259L119.008 40.6599L138.916 40.7319C145.544 40.7719 152.176 40.8519 158.812 40.9719Z" fill="#DBDBDB"/>
<path d="M158.812 36.6459C152.176 36.7579 145.54 36.8359 138.904 36.8799L118.996 36.9519L99.1 36.8799C92.464 36.8439 85.828 36.7659 79.192 36.6459C85.828 36.5379 92.464 36.4599 99.1 36.4119L119.008 36.3459L138.916 36.4119C145.544 36.4559 152.176 36.5339 158.812 36.6459Z" fill="#DBDBDB"/>
<path d="M36.934 29.23H24.832V57.028H36.934V29.23Z" fill="#C7C7C7"/>
</svg>
