<svg width="301" height="301" viewBox="0 0 301 301" fill="none" xmlns="http://www.w3.org/2000/svg">
<g clip-path="url(#clip0_34_2995)">
<path d="M247.946 38.2099L255.818 38.0419L259.814 37.9759C261.152 37.9459 262.496 37.9759 263.834 37.9399H264.098V38.2099L264.134 44.8999V45.1999H263.834L255.89 45.1579C253.238 45.1579 250.592 45.0919 247.946 45.0619H247.778V44.8999C247.778 43.7599 247.832 42.6259 247.856 41.5039L247.946 38.2099ZM247.946 38.2099L248.03 41.5999C248.03 42.7159 248.096 43.8199 248.108 44.9239L247.946 44.7559C250.592 44.7259 253.238 44.6599 255.89 44.6599L263.834 44.6239L263.534 44.9239L263.564 38.2099L263.834 38.4739C262.526 38.4739 261.218 38.4739 259.904 38.4739L255.956 38.4079L247.946 38.2099Z" fill="#EBEBEB"/>
<path d="M47.258 163.058L55.13 162.89L59.126 162.824C60.464 162.824 61.802 162.824 63.146 162.794H63.41V163.064L63.446 169.778V170.084H63.146L55.202 170.048C52.55 170.048 49.904 169.982 47.258 169.952H47.09V169.79C47.09 168.65 47.144 167.522 47.168 166.4L47.258 163.058ZM47.258 163.058L47.342 166.454C47.342 167.57 47.408 168.674 47.42 169.772L47.258 169.61C49.904 169.58 52.55 169.514 55.202 169.514L63.146 169.472L62.846 169.772V163.058L63.116 163.328C61.802 163.328 60.5 163.328 59.186 163.292L55.238 163.226L47.258 163.058Z" fill="#EBEBEB"/>
<path d="M256.808 29.744L264.68 29.576L268.676 29.51C270.014 29.48 271.358 29.51 272.696 29.474H272.96V29.744L272.996 36.458V36.758H272.696L264.752 36.716C262.106 36.716 259.454 36.65 256.808 36.62H256.64V36.458C256.64 35.318 256.688 34.184 256.718 33.062L256.808 29.744ZM256.808 29.744L256.892 33.134C256.922 34.25 256.958 35.36 256.97 36.458L256.808 36.29C259.454 36.29 262.106 36.2 264.752 36.194L272.696 36.158L272.396 36.458V29.744L272.666 30.008C271.358 30.008 270.05 30.008 268.736 30.008L264.818 29.9L256.808 29.744Z" fill="#EBEBEB"/>
<path d="M205.634 130.418L213.512 130.25L217.508 130.184C218.84 130.184 220.184 130.184 221.522 130.148H221.792V130.418L221.822 137.132V137.432H221.516L213.572 137.396C210.926 137.396 208.28 137.324 205.628 137.294H205.466V137.132C205.466 135.992 205.52 134.858 205.544 133.742L205.634 130.418ZM205.634 130.418L205.718 133.808C205.748 134.93 205.79 136.034 205.802 137.132L205.634 136.97C208.286 136.97 210.932 136.874 213.578 136.868L221.522 136.832L221.222 137.132L221.258 130.418L221.522 130.688C220.214 130.688 218.912 130.688 217.598 130.652L213.65 130.586L205.634 130.418Z" fill="#EBEBEB"/>
<path d="M214.496 121.952L222.374 121.784L226.37 121.718C227.708 121.688 229.046 121.718 230.384 121.682H230.654V121.952L230.684 128.666V128.966H230.378L222.434 128.93C219.788 128.93 217.142 128.858 214.49 128.828H214.328V128.666C214.328 127.526 214.382 126.392 214.406 125.276L214.496 121.952ZM214.496 121.952L214.586 125.342C214.586 126.464 214.652 127.568 214.664 128.666L214.496 128.504C217.148 128.474 219.794 128.408 222.44 128.402L230.384 128.366L230.09 128.666L230.12 121.952L230.384 122.222C229.076 122.222 227.774 122.222 226.46 122.186L222.5 122.12L214.496 121.952Z" fill="#EBEBEB"/>
<path d="M223.328 130.418L231.2 130.25L235.196 130.184C236.534 130.184 237.878 130.184 239.216 130.148H239.48V130.418L239.516 137.132V137.432H239.216L231.272 137.396C228.62 137.396 225.974 137.324 223.328 137.294H223.16V137.132C223.16 135.992 223.208 134.858 223.238 133.742L223.328 130.418ZM223.328 130.418L223.412 133.808C223.442 134.93 223.478 136.034 223.49 137.132L223.328 136.97C225.974 136.97 228.62 136.874 231.272 136.868L239.216 136.832L238.916 137.132L238.946 130.418L239.216 130.688C237.908 130.688 236.6 130.688 235.286 130.652L231.338 130.586L223.328 130.418Z" fill="#EBEBEB"/>
<path d="M28.304 29.744L36.182 29.576L40.178 29.51C41.51 29.48 42.854 29.51 44.192 29.474H44.462V29.744V36.458V36.758H44.162L36.218 36.716C33.572 36.716 30.92 36.65 28.274 36.62H28.112V36.458C28.112 35.318 28.16 34.184 28.19 33.062L28.304 29.744ZM28.304 29.744L28.388 33.134C28.418 34.25 28.46 35.36 28.466 36.458L28.304 36.29C30.95 36.29 33.602 36.2 36.248 36.194L44.192 36.158L43.892 36.458L43.928 29.744L44.192 30.008C42.884 30.008 41.576 30.008 40.268 30.008L36.32 29.9L28.304 29.744Z" fill="#EBEBEB"/>
<path d="M37.166 211.61L45.044 211.442L49.04 211.376C50.372 211.376 51.716 211.376 53.054 211.34H53.3V211.61V218.324V218.624H52.994L45.05 218.582C42.404 218.582 39.758 218.516 37.106 218.486H36.944V218.3C36.944 217.16 36.998 216.026 37.022 214.904L37.166 211.61ZM37.166 211.61L37.25 215C37.25 216.116 37.322 217.226 37.334 218.324L37.166 218.156C39.818 218.126 42.464 218.066 45.11 218.06L53.054 218.024L52.754 218.324L52.79 211.61L53.054 211.874C51.746 211.874 50.444 211.874 49.13 211.844L45.182 211.778L37.166 211.61Z" fill="#EBEBEB"/>
<path d="M28.304 203.144L36.182 202.976L40.178 202.91C41.51 202.88 42.854 202.91 44.192 202.874H44.462V203.144V209.858V210.158H44.162L36.218 210.116C33.572 210.116 30.92 210.05 28.274 210.02H28.112V209.858C28.112 208.718 28.16 207.584 28.19 206.462L28.304 203.144ZM28.304 203.144L28.388 206.534C28.418 207.65 28.46 208.76 28.466 209.858L28.304 209.69C30.95 209.69 33.602 209.6 36.248 209.594L44.192 209.558L43.892 209.858L43.928 203.144L44.192 203.408C42.884 203.408 41.576 203.408 40.268 203.378L36.32 203.3L28.304 203.144Z" fill="#EBEBEB"/>
<path d="M247.946 211.61L255.818 211.442L259.814 211.376C261.152 211.376 262.496 211.376 263.834 211.34H264.098V211.61L264.134 218.324V218.624H263.834L255.89 218.582C253.238 218.582 250.592 218.516 247.946 218.486H247.778V218.3C247.778 217.16 247.832 216.026 247.856 214.904L247.946 211.61ZM247.946 211.61L248.03 215C248.03 216.116 248.096 217.226 248.108 218.324L247.946 218.156C250.592 218.126 253.238 218.066 255.89 218.06L263.834 218.024L263.534 218.324L263.564 211.61L263.834 211.874C262.526 211.874 261.218 211.874 259.904 211.844L255.956 211.778L247.946 211.61Z" fill="#EBEBEB"/>
<path d="M44.864 0.5H44.264V48.572H44.864V0.5Z" fill="#C7C7C7"/>
<path d="M64.892 68.174L63.26 71.768H25.862L24.23 68.174L40.154 57.152H48.974L64.892 68.174Z" fill="#EBEBEB"/>
<path d="M50.078 46.532L48.974 57.152H40.154L39.044 46.532H50.078Z" fill="#DBDBDB"/>
<path d="M64.892 68.174L63.26 71.7679H25.856L24.23 68.174H64.892Z" fill="#DBDBDB"/>
<path d="M85.856 0.5H85.256V27.626H85.856V0.5Z" fill="#C7C7C7"/>
<path d="M105.89 47.2281L104.252 50.8221H66.854L65.222 47.2281L81.146 36.2061H89.966L105.89 47.2281Z" fill="#EBEBEB"/>
<path d="M91.07 25.5861L89.966 36.2061H81.146L80.042 25.5861H91.07Z" fill="#DBDBDB"/>
<path d="M105.89 47.228L104.252 50.822H66.854L65.222 47.228H105.89Z" fill="#DBDBDB"/>
<path d="M199.64 59.822L273.05 59.822V55.466L199.64 55.466V59.822Z" fill="#EBEBEB"/>
<path d="M267.476 59.828H263.114V74.246H267.476V59.828Z" fill="#EBEBEB"/>
<path d="M267.476 59.828H263.114V64.286H267.476V59.828Z" fill="#DBDBDB"/>
<path d="M209.57 59.828H205.208V74.246H209.57V59.828Z" fill="#EBEBEB"/>
<path d="M209.57 59.828H205.208V64.286H209.57V59.828Z" fill="#DBDBDB"/>
<path d="M254.492 55.466V27.686H247.496V55.466H254.492Z" fill="#C7C7C7"/>
<path d="M254.492 29.252V26.198H247.496V29.252H254.492Z" fill="#DBDBDB"/>
<path d="M254.492 34.2979V33.1639H247.496V34.2979H254.492Z" fill="#DBDBDB"/>
<path d="M254.492 51.818V48.764H246.626V51.818H254.492Z" fill="#DBDBDB"/>
<path d="M247.502 55.4661V23.0601H242.612V55.4661H247.502Z" fill="#DBDBDB"/>
<path d="M246.542 38.57V26.108H243.608V38.57H246.542Z" fill="#EBEBEB"/>
<path d="M211.273 55.4849L234.319 32.7028L230.881 29.2252L207.835 52.0073L211.273 55.4849Z" fill="#C7C7C7"/>
<path d="M215.987 49.4273L224.849 40.6663L222.787 38.5797L213.924 47.3408L215.987 49.4273Z" fill="#DBDBDB"/>
<path d="M242.612 55.466V30.854H234.308V55.466H242.612Z" fill="#A3BF44"/>
<path d="M242.612 52.856V50.564H234.308V52.856H242.612Z" fill="#C7C7C7"/>
<path d="M242.612 49.0581V48.17H234.308V49.0581H242.612Z" fill="#C7C7C7"/>
<path d="M260.228 55.472V32.342H254.492V55.472H260.228Z" fill="#A3BF44"/>
<path d="M260.228 53.018V50.864H254.492V53.018H260.228Z" fill="#C7C7C7"/>
<path d="M260.228 39.2661V37.1121H254.492V39.2661H260.228Z" fill="#C7C7C7"/>
<path d="M260.234 41.5759V40.7419H254.498V41.5759H260.234Z" fill="#C7C7C7"/>
<path d="M243.668 83.204H209.708V124.394H243.668V83.204Z" fill="#EBEBEB"/>
<path d="M239.786 86.9661H213.59V120.638H239.786V86.9661Z" fill="white"/>
<path d="M214.61 86.9661H213.59V120.638H214.61V86.9661Z" fill="#DBDBDB"/>
<path d="M244.688 83.204H243.668V124.394H244.688V83.204Z" fill="#DBDBDB"/>
<path d="M228.548 91.604H222.368V110.006H228.548V91.604Z" fill="#DBDBDB"/>
<path d="M236.444 113.456H219.374V103.856H236.444V113.456ZM219.974 112.856H235.844V104.456H219.974V112.856Z" fill="#EBEBEB"/>
<path d="M272.03 128.792H238.07V169.982H272.03V128.792Z" fill="#EBEBEB"/>
<path d="M268.142 132.554H241.946V166.226H268.142V132.554Z" fill="white"/>
<path d="M242.966 132.554H241.946V166.226H242.966V132.554Z" fill="#DBDBDB"/>
<path d="M273.044 128.792H272.024V169.982H273.044V128.792Z" fill="#DBDBDB"/>
<path d="M257.804 141.254H252.512V154.634H257.804V141.254Z" fill="#EBEBEB"/>
<path d="M263.672 158.9H248.858V149.09H263.672V158.9ZM249.458 158.3H263.072V149.69H249.458V158.3Z" fill="#DBDBDB"/>
<path d="M28.148 152.012V254.438H90.068V152.012H28.148ZM84.446 216.638H33.77V189.974H84.446V216.638ZM84.446 183.638H33.77V156.962H84.446V183.638Z" fill="#DBDBDB"/>
<path d="M118.064 152.012H90.068V254.432H118.064V152.012Z" fill="#EBEBEB"/>
<path d="M45.818 156.956H33.776V183.62H45.818V156.956Z" fill="#EBEBEB"/>
<path d="M84.596 248.156H33.938V222.434H84.596V248.156ZM34.238 247.856H84.296V222.734H34.238V247.856Z" fill="#EBEBEB"/>
<path d="M64.268 229.736H54.266V233.39H64.268V229.736Z" fill="#EBEBEB"/>
<path d="M45.818 189.974H33.776V216.638H45.818V189.974Z" fill="#EBEBEB"/>
<path d="M77.516 216.632V192.05H69.044V216.632H77.516Z" fill="#A6A6A6"/>
<path d="M77.516 212.69V207.386H69.044V212.69H77.516Z" fill="#DBDBDB"/>
<path d="M77.516 203.114V199.97H69.044V203.114H77.516Z" fill="#DBDBDB"/>
<path d="M94.658 131.414H73.25V151.988H94.658V131.414Z" fill="#EBEBEB"/>
<path d="M102.8 131.414H94.664V151.988H102.8V131.414Z" fill="#C7C7C7"/>
<path d="M73.25 141.698H94.664L77.942 142.226L73.25 141.698Z" fill="#C7C7C7"/>
<path d="M94.664 149.498H73.25L89.972 150.032L94.664 149.498Z" fill="#C7C7C7"/>
<path d="M73.25 135.95H86.81L74.756 136.382L73.25 135.95Z" fill="#C7C7C7"/>
<path d="M94.664 146.468H81.098L93.158 146.906L94.664 146.468Z" fill="#C7C7C7"/>
<path d="M78.386 133.658H93.686L91.136 133.916L78.386 133.658Z" fill="#C7C7C7"/>
<path d="M75.332 143.906H90.626L88.082 144.164L75.332 143.906Z" fill="#C7C7C7"/>
<path d="M84.74 137.906H94.664L96.434 138.596L84.74 137.906Z" fill="#EBEBEB"/>
<path d="M70.52 137.906H80.438L82.214 138.596L70.52 137.906Z" fill="#EBEBEB"/>
<path d="M83.252 147.152H73.328L71.552 147.842L83.252 147.152Z" fill="#EBEBEB"/>
<path d="M94.664 144.806H102.626L104.402 145.496L94.664 144.806Z" fill="#C7C7C7"/>
<path d="M97.442 141.698H103.622L102.8 141.134L97.442 141.698Z" fill="#C7C7C7"/>
<path d="M69.956 163.052H48.548V183.626H69.956V163.052Z" fill="#EBEBEB"/>
<path d="M78.092 163.052H69.956V183.626H78.092V163.052Z" fill="#C7C7C7"/>
<path d="M48.548 173.336H69.956L53.24 173.864L48.548 173.336Z" fill="#C7C7C7"/>
<path d="M69.956 181.136H48.548L65.27 181.664L69.956 181.136Z" fill="#C7C7C7"/>
<path d="M48.548 167.588H62.108L50.054 168.02L48.548 167.588Z" fill="#C7C7C7"/>
<path d="M69.956 178.112H56.396L68.45 178.544L69.956 178.112Z" fill="#C7C7C7"/>
<path d="M53.684 165.296H68.978L66.428 165.554L53.684 165.296Z" fill="#C7C7C7"/>
<path d="M50.63 175.544H65.924L63.374 175.802L50.63 175.544Z" fill="#C7C7C7"/>
<path d="M60.038 169.544H69.956L71.732 170.234L60.038 169.544Z" fill="#EBEBEB"/>
<path d="M45.818 169.544H55.736L57.512 170.234L45.818 169.544Z" fill="#EBEBEB"/>
<path d="M58.544 178.79H48.626L46.85 179.486L58.544 178.79Z" fill="#EBEBEB"/>
<path d="M69.956 176.444H77.924L79.7 177.134L69.956 176.444Z" fill="#C7C7C7"/>
<path d="M72.74 173.336H78.914L78.092 172.772L72.74 173.336Z" fill="#C7C7C7"/>
<path d="M84.446 190.412H77.516V216.638H84.446V190.412Z" fill="#EBEBEB"/>
<path d="M80.978 195.584C80.6917 195.584 80.4119 195.499 80.174 195.34C79.9361 195.181 79.7507 194.955 79.6415 194.69C79.5322 194.425 79.5039 194.134 79.5602 193.854C79.6165 193.573 79.7548 193.315 79.9576 193.113C80.1605 192.911 80.4187 192.774 80.6996 192.719C80.9805 192.664 81.2714 192.693 81.5355 192.804C81.7996 192.914 82.025 193.1 82.1832 193.339C82.3414 193.578 82.4252 193.858 82.424 194.144C82.4224 194.526 82.2693 194.893 81.9983 195.163C81.7273 195.432 81.3604 195.584 80.978 195.584Z" fill="white"/>
<path d="M80.978 194.966C80.7713 194.948 80.5788 194.854 80.4385 194.701C80.2982 194.548 80.2204 194.348 80.2204 194.141C80.2204 193.934 80.2982 193.734 80.4385 193.581C80.5788 193.428 80.7713 193.334 80.978 193.316C81.0922 193.306 81.2073 193.32 81.3158 193.357C81.4243 193.394 81.524 193.454 81.6084 193.531C81.6929 193.609 81.7603 193.703 81.8064 193.808C81.8526 193.913 81.8764 194.026 81.8764 194.141C81.8764 194.256 81.8526 194.369 81.8064 194.474C81.7603 194.579 81.6929 194.673 81.6084 194.751C81.524 194.828 81.4243 194.888 81.3158 194.925C81.2073 194.962 81.0922 194.976 80.978 194.966Z" fill="#A6A6A6"/>
<path d="M84.446 212.504V206.126H77.516V212.504H84.446Z" fill="white"/>
<path d="M69.044 211.22H42.818V216.674H69.044V211.22Z" fill="#C7C7C7"/>
<path d="M63.872 213.95C63.8708 213.663 63.9547 213.383 64.1132 213.144C64.2716 212.906 64.4974 212.719 64.7618 212.609C65.0263 212.499 65.3175 212.47 65.5986 212.525C65.8796 212.581 66.1378 212.719 66.3404 212.922C66.543 213.124 66.6809 213.382 66.7365 213.663C66.7921 213.944 66.7629 214.236 66.6527 214.5C66.5425 214.765 66.3563 214.99 66.1176 215.149C65.8789 215.307 65.5985 215.391 65.312 215.39C64.93 215.39 64.5638 215.238 64.2937 214.968C64.0237 214.698 63.872 214.332 63.872 213.95Z" fill="white"/>
<path d="M64.49 213.95C64.4888 213.786 64.5365 213.625 64.6271 213.488C64.7176 213.351 64.8468 213.244 64.9984 213.18C65.1499 213.117 65.3169 213.1 65.4781 213.132C65.6392 213.163 65.7873 213.242 65.9035 213.359C66.0196 213.475 66.0986 213.623 66.1304 213.784C66.1621 213.945 66.1452 214.112 66.0818 214.264C66.0184 214.415 65.9113 214.544 65.7743 214.635C65.6372 214.725 65.4763 214.773 65.312 214.772C65.094 214.772 64.8849 214.685 64.7308 214.531C64.5766 214.377 64.49 214.168 64.49 213.95Z" fill="#A6A6A6"/>
<path d="M46.952 216.674H53.33V211.22H46.952V216.674Z" fill="white"/>
<path d="M163.754 283.478C212.356 283.478 251.756 279.535 251.756 274.67C251.756 269.805 212.356 265.862 163.754 265.862C115.152 265.862 75.752 269.805 75.752 274.67C75.752 279.535 115.152 283.478 163.754 283.478Z" fill="#EBEBEB"/>
<path d="M27.95 254.438L58.592 254.288L89.228 254.234L150.5 254.138L211.772 254.234L242.414 254.288L273.05 254.438L242.414 254.582L211.772 254.636L150.5 254.738L89.228 254.636L58.592 254.582L27.95 254.438Z" fill="#263238"/>
<path d="M196.91 245.276L55.79 254.582V41.186L196.91 33.656V245.276Z" fill="#F3F3F3"/>
<path d="M225.044 49.142H74.456V264.314H225.044V49.142Z" fill="#F3F3F3"/>
<path opacity="0.2" d="M225.044 49.142H74.456V264.314H225.044V49.142Z" fill="black"/>
<path opacity="0.1" d="M79.154 49.142H74.456V264.314H79.154V49.142Z" fill="black"/>
<path d="M74.45 49.142L57.548 41.936L193.628 38.78L221.384 49.142H74.45Z" fill="white"/>
<path d="M58.85 42.59L68.252 42.23L77.648 41.918L96.446 41.366L115.25 40.916L124.652 40.73L134.06 40.592L124.658 40.952L115.262 41.264L96.458 41.816L77.654 42.266L68.252 42.452L58.85 42.59Z" fill="#EBEBEB"/>
<path d="M67.58 43.49L83.936 43.016L100.304 42.614L133.028 41.816L165.752 41.168L182.114 40.844L198.482 40.592L182.12 41.066L165.758 41.468L133.034 42.266L100.31 42.914L83.942 43.238L67.58 43.49Z" fill="#EBEBEB"/>
<path d="M67.226 45.9799C73.334 45.7639 79.4479 45.6139 85.5559 45.4699L103.886 45.1279L122.222 44.8999L131.39 44.8459H140.558L131.396 45.1279L122.228 45.3499L103.898 45.6979L85.562 45.9019C79.448 45.9739 73.34 46.0099 67.226 45.9799Z" fill="#EBEBEB"/>
<path d="M70.514 47.78L82.496 47.546L94.484 47.378L118.448 47.132L142.418 47.03L154.406 47.024L166.388 47.084L154.406 47.318L142.424 47.486L118.454 47.732L94.484 47.834L82.502 47.84L70.514 47.78Z" fill="#EBEBEB"/>
<path d="M150.386 45.5C155.69 45.374 161 45.32 166.304 45.272L182.222 45.2L198.134 45.266L206.096 45.35L214.052 45.5L206.096 45.6439L198.134 45.7279L182.222 45.8L166.304 45.7279C161 45.6499 155.69 45.596 150.386 45.5Z" fill="#EBEBEB"/>
<path d="M145.7 43.142C150.464 42.938 155.234 42.806 159.998 42.686L174.296 42.392L188.594 42.236H195.746L202.898 42.272L195.758 42.5L188.606 42.692L174.308 42.986L160.01 43.142C155.246 43.172 150.5 43.19 145.7 43.142Z" fill="#EBEBEB"/>
<path d="M193.628 38.78C195.986 39.53 198.32 40.34 200.648 41.18C202.976 42.02 205.292 42.866 207.614 43.706C209.936 44.546 212.228 45.452 214.526 46.358L217.964 47.732C219.104 48.212 220.25 48.674 221.384 49.166C220.184 48.8 219.038 48.398 217.862 48.008L214.364 46.808C212.036 45.986 209.72 45.122 207.404 44.282C205.088 43.442 202.784 42.536 200.486 41.624C198.188 40.712 195.902 39.764 193.628 38.78Z" fill="#EBEBEB"/>
<path d="M55.79 254.582L74.45 264.314V49.142L55.79 41.186V254.582Z" fill="#F3F3F3"/>
<path opacity="0.4" d="M55.79 254.582L74.45 264.314V49.142L55.79 41.186V254.582Z" fill="black"/>
<path d="M181.136 45.5H196.91C199.009 46.5547 201.016 47.7829 202.91 49.172V78.998L195.71 74.054L188.18 78.998V49.142L181.136 45.5Z" fill="#A3BF44"/>
<path d="M113.054 45.29L128.006 45.062C128.006 45.062 125.75 36.416 124.616 34.31C123.482 32.204 116.3 26.198 116.3 26.198L115.448 31.1L103.892 29.456C103.892 29.456 108.596 33.656 110.132 35.294C111.344 36.566 113.054 45.29 113.054 45.29Z" fill="#F3F3F3"/>
<path d="M92.462 42.938L105.44 42.614L104.33 31.808L98.762 36.086L92.192 32.66L92.462 42.938Z" fill="#A3BF44"/>
</g>
<defs>
<clipPath id="clip0_34_2995">
<rect width="300" height="300" fill="white" transform="translate(0.5 0.5)"/>
</clipPath>
</defs>
</svg>
